<svg width="44" height="44" viewBox="0 0 44 44" fill="none" xmlns="http://www.w3.org/2000/svg">
<path d="M21.982 3.6665C11.862 3.6665 3.66699 11.8798 3.66699 21.9998C3.66699 32.1198 11.862 40.3332 21.982 40.3332C32.1203 40.3332 40.3337 32.1198 40.3337 21.9998C40.3337 11.8798 32.1203 3.6665 21.982 3.6665ZM15.5837 14.6665C17.1053 14.6665 18.3337 15.8948 18.3337 17.4165C18.3337 18.9382 17.1053 20.1665 15.5837 20.1665C14.062 20.1665 12.8337 18.9382 12.8337 17.4165C12.8337 15.8948 14.062 14.6665 15.5837 14.6665ZM30.7087 27.0415C28.967 30.0482 25.722 32.0832 22.0003 32.0832C18.2787 32.0832 15.0337 30.0482 13.292 27.0415C12.9437 26.4365 13.402 25.6665 14.0987 25.6665H29.902C30.617 25.6665 31.057 26.4365 30.7087 27.0415ZM28.417 20.1665C26.8953 20.1665 25.667 18.9382 25.667 17.4165C25.667 15.8948 26.8953 14.6665 28.417 14.6665C29.9387 14.6665 31.167 15.8948 31.167 17.4165C31.167 18.9382 29.9387 20.1665 28.417 20.1665Z" fill="white"/>
</svg>
