<svg width="44" height="44" viewBox="0 0 44 44" fill="none" xmlns="http://www.w3.org/2000/svg">
<path d="M33.5493 10.4682C32.8343 9.75316 31.6793 9.75316 30.9643 10.4682L21.9993 19.4148L13.0343 10.4498C12.3193 9.73482 11.1643 9.73482 10.4493 10.4498C9.73434 11.1648 9.73434 12.3198 10.4493 13.0348L19.4143 21.9998L10.4493 30.9648C9.73434 31.6798 9.73434 32.8348 10.4493 33.5498C11.1643 34.2648 12.3193 34.2648 13.0343 33.5498L21.9993 24.5848L30.9643 33.5498C31.6793 34.2648 32.8343 34.2648 33.5493 33.5498C34.2643 32.8348 34.2643 31.6798 33.5493 30.9648L24.5843 21.9998L33.5493 13.0348C34.246 12.3382 34.246 11.1648 33.5493 10.4682Z" fill="white"/>
</svg>
