<svg width="44" height="44" viewBox="0 0 44 44" fill="none" xmlns="http://www.w3.org/2000/svg">
<path d="M33.5498 10.4682C32.8348 9.75316 31.6798 9.75316 30.9648 10.4682L21.9998 19.4148L13.0348 10.4498C12.3198 9.73482 11.1648 9.73482 10.4498 10.4498C9.73482 11.1648 9.73482 12.3198 10.4498 13.0348L19.4148 21.9998L10.4498 30.9648C9.73482 31.6798 9.73482 32.8348 10.4498 33.5498C11.1648 34.2648 12.3198 34.2648 13.0348 33.5498L21.9998 24.5848L30.9648 33.5498C31.6798 34.2648 32.8348 34.2648 33.5498 33.5498C34.2648 32.8348 34.2648 31.6798 33.5498 30.9648L24.5848 21.9998L33.5498 13.0348C34.2465 12.3382 34.2465 11.1648 33.5498 10.4682V10.4682Z" fill="#F17188"/>
</svg>
