<svg width="60" height="60" viewBox="0 0 60 60" fill="none" xmlns="http://www.w3.org/2000/svg">
<path d="M57.6571 13.8866C56.0944 12.3243 54.2094 11.5428 52.0009 11.5428H45.0009L43.4074 7.2931C43.0114 6.27242 42.2878 5.39207 41.2352 4.65215C40.183 3.91255 39.1049 3.54248 38.0006 3.54248H22.0002C20.896 3.54248 19.8178 3.91255 18.7656 4.65215C17.7134 5.39207 16.9897 6.27242 16.5938 7.2931L15.0001 11.5428H8.00004C5.79132 11.5428 3.90627 12.3243 2.34356 13.8866C0.781188 15.4491 0 17.3344 0 19.5429V47.5432C0 49.7518 0.781188 51.6373 2.34356 53.1993C3.90627 54.762 5.79143 55.5434 8.00004 55.5434H52.0002C54.2087 55.5434 56.0935 54.762 57.6563 53.1993C59.2186 51.6373 60 49.7518 60 47.5432V19.5429C60.0004 17.3344 59.219 15.4491 57.6571 13.8866ZM39.8908 43.4341C37.1513 46.1738 33.8547 47.5439 30.0002 47.5439C26.1457 47.5439 22.8493 46.1738 20.1095 43.4341C17.3697 40.6948 16.0001 37.3975 16.0001 33.5438C16.0001 29.689 17.3701 26.3928 20.1095 23.653C22.849 20.9132 26.1458 19.5435 30.0002 19.5435C33.8546 19.5435 37.1513 20.9135 39.8908 23.653C42.6305 26.3924 44.0004 29.689 44.0004 33.5438C44.0004 37.3975 42.6306 40.6945 39.8908 43.4341Z" fill="white"/>
<path d="M30.0004 24.5435C27.5211 24.5435 25.4012 25.4237 23.6407 27.1844C21.8802 28.9449 21 31.0644 21 33.5443C21 36.0231 21.8802 38.1429 23.6407 39.9034C25.4012 41.6636 27.521 42.5438 30.0004 42.5438C32.4793 42.5438 34.5994 41.6636 36.3599 39.9034C38.1204 38.1429 39.0007 36.0232 39.0007 33.5443C39.0007 31.0645 38.1204 28.945 36.3599 27.1844C34.5995 25.4238 32.4793 24.5435 30.0004 24.5435Z" fill="white"/>
</svg>
