<svg width="22" height="22" viewBox="0 0 22 22" fill="none" xmlns="http://www.w3.org/2000/svg">
<path d="M3.67968 2.96552L3.67941 2.96552C2.18773 2.96721 0.978924 4.17601 0.977235 5.66769V5.66796L0.977235 18.4788L0.977235 18.479C0.978924 19.9707 2.18772 21.1795 3.67941 21.1812H3.67968H17.4735H17.4738C18.9655 21.1795 20.1743 19.9707 20.1759 18.479V18.4788V14.1137C20.1759 13.7072 19.8464 13.3777 19.4399 13.3777C19.0334 13.3777 18.7039 13.7072 18.7039 14.1137V18.4783C18.7031 19.1578 18.1526 19.7083 17.4733 19.7089H3.67991C3.00064 19.7083 2.45023 19.1579 2.44933 18.4785V5.66806C2.45023 4.98892 3.00057 4.43846 3.67987 4.43761C3.67991 4.43761 3.67994 4.43761 3.67997 4.43761L8.04456 4.43761C8.4511 4.43761 8.7806 4.1081 8.7806 3.70156C8.7806 3.29528 8.45116 2.96552 8.04456 2.96552L3.67968 2.96552Z" fill="#AD00FF" stroke="#AD00FF" stroke-width="0.488889"/>
<path d="M7.83651 10.7153L7.66366 10.5424L16.4341 1.77199C17.3935 0.812578 18.949 0.812578 19.9084 1.77199L20.4853 2.34885L20.4855 2.34904C21.4433 3.30899 21.4433 4.86299 20.4855 5.82293L20.4853 5.82312L11.715 14.5938L11.5421 14.4209L11.715 14.5938C11.625 14.6838 11.5134 14.7487 11.391 14.7827C11.391 14.7827 11.391 14.7827 11.391 14.7827L7.22716 15.9362L7.22709 15.9362C6.97147 16.007 6.69783 15.9347 6.51026 15.7474L6.50999 15.7472C6.32275 15.5597 6.25045 15.286 6.32143 15.0303L7.83651 10.7153ZM7.83651 10.7153L7.66366 10.5425C7.57368 10.6324 7.50869 10.744 7.47477 10.8665L6.32148 15.0301L7.83651 10.7153ZM16.2585 4.02953L16.2585 4.02955L9.10868 11.1795L8.67453 12.0507L8.08572 14.1761L10.3253 13.5843L11.0724 13.1541L18.2277 5.99879L18.2277 5.99877L18.923 5.30364L18.9231 5.30362L19.4442 4.78248L16.2585 4.02953ZM16.2585 4.02953L16.9536 3.33424L16.9536 3.33418L17.4751 2.81287L17.4752 2.81284C17.8596 2.42841 18.4829 2.42841 18.8674 2.81284L18.8674 2.81287M16.2585 4.02953L18.8674 2.81287M18.8674 2.81287L19.4442 3.38946M18.8674 2.81287L19.4442 3.38946M19.4442 3.38946L19.4444 3.38973C19.8281 3.77476 19.828 4.39751 19.4444 4.78227L19.4442 3.38946Z" fill="#AD00FF" stroke="#AD00FF" stroke-width="0.488889"/>
</svg>
