<svg width="29" height="29" viewBox="0 0 29 29" fill="none" xmlns="http://www.w3.org/2000/svg">
<path d="M4.85045 3.90898L4.85008 3.90898C2.88377 3.91121 1.29036 5.50462 1.28813 7.47093V7.4713L1.28813 24.3583L1.28813 24.3586C1.29036 26.3249 2.88377 27.9184 4.85008 27.9206H4.85045H23.0332L23.0336 27.9206C24.9999 27.9184 26.5933 26.3249 26.5955 24.3586V24.3583V18.6043C26.5955 18.0684 26.1612 17.6341 25.6253 17.6341C25.0894 17.6341 24.655 18.0684 24.655 18.6043V24.3576C24.654 25.2533 23.9284 25.979 23.0329 25.9799H4.85075C3.95532 25.979 3.22977 25.2534 3.22861 24.3578V7.47148C3.22977 6.57624 3.95519 5.85062 4.85063 5.84946H10.6041C11.14 5.84946 11.5744 5.41511 11.5744 4.87922C11.5744 4.34367 11.1401 3.90898 10.6041 3.90898L4.85045 3.90898Z" fill="#979299" stroke="#979299" stroke-width="0.644444"/>
<path d="M8.5818 20.7576L8.58215 20.758C8.8294 21.0048 9.19012 21.1 9.52707 21.0068L9.52716 21.0068L15.0158 19.4862C15.1772 19.4415 15.3243 19.3558 15.4429 19.2372L15.2379 19.0321L15.4429 19.2372L27.0037 7.67589L27.004 7.67564C28.2666 6.41026 28.2666 4.3618 27.004 3.09642L27.0037 3.09617L26.2433 2.33576C24.9787 1.07108 22.9283 1.07108 21.6636 2.33576L10.1025 13.8968C9.98393 14.0154 9.89826 14.1625 9.85355 14.3239L8.3333 19.8124C8.23963 20.1495 8.33492 20.5103 8.5818 20.7576ZM13.6111 17.9066L10.6589 18.6866L11.4351 15.885L12.0073 14.7366L21.432 5.31163L21.4321 5.3116L22.3483 4.39509L22.3484 4.39501L23.0358 3.70783L23.0359 3.70779C23.5426 3.20105 24.3643 3.20105 24.871 3.70779L24.8711 3.70783L25.6314 4.46788C25.6314 4.46794 25.6315 4.468 25.6316 4.46806C26.1376 4.97567 26.1374 5.79691 25.6314 6.30414L24.9445 6.99109L24.9445 6.99112L24.0279 7.90742L24.0279 7.90746L14.5959 17.3394L13.6111 17.9066Z" fill="#979299" stroke="#979299" stroke-width="0.644444"/>
</svg>
