<svg width="44" height="44" viewBox="0 0 44 44" fill="none" xmlns="http://www.w3.org/2000/svg">
<path d="M35.6769 14.6666L37.1252 11.4583L40.3336 10.01C41.0486 9.67995 41.0486 8.67162 40.3336 8.34162L37.1252 6.89329L35.6769 3.66662C35.3469 2.95162 34.3386 2.95162 34.0086 3.66662L32.5602 6.87495L29.3336 8.32329C28.6186 8.65329 28.6186 9.66162 29.3336 9.99162L32.5419 11.44L33.9902 14.6666C34.3202 15.3816 35.3469 15.3816 35.6769 14.6666ZM21.0836 17.4166L18.1686 11C17.5269 9.56995 15.4736 9.56995 14.8319 11L11.9169 17.4166L5.50023 20.3316C4.07023 20.9916 4.07023 23.0266 5.50023 23.6683L11.9169 26.5833L14.8319 33C15.4919 34.43 17.5269 34.43 18.1686 33L21.0836 26.5833L27.5002 23.6683C28.9302 23.0083 28.9302 20.9733 27.5002 20.3316L21.0836 17.4166ZM33.9902 29.3333L32.5419 32.5416L29.3336 33.99C28.6186 34.32 28.6186 35.3283 29.3336 35.6583L32.5419 37.1066L33.9902 40.3333C34.3202 41.0483 35.3286 41.0483 35.6586 40.3333L37.1069 37.125L40.3336 35.6766C41.0486 35.3466 41.0486 34.3383 40.3336 34.0083L37.1252 32.56L35.6769 29.3333C35.3469 28.6183 34.3202 28.6183 33.9902 29.3333Z" fill="white"/>
</svg>
