<svg width="15" height="20" viewBox="0 0 15 20" fill="none" xmlns="http://www.w3.org/2000/svg">
<g clip-path="url(#clip0)">
<path d="M14.9444 9.32258C14.8263 9.15069 11.9875 5.125 7.49996 5.125C3.64927 5.125 0.217965 9.12757 0.0735876 9.2982C-0.0245292 9.41445 -0.0245292 9.58508 0.0735876 9.70195C0.217965 9.87257 3.64927 13.8751 7.49996 13.8751C11.3507 13.8751 14.7819 9.87257 14.9263 9.70195C15.017 9.59445 15.0251 9.43883 14.9444 9.32258ZM7.49996 13.2501C4.41305 13.2501 1.47798 10.3064 0.732367 9.50009C1.47675 8.69321 4.40868 5.75003 7.49996 5.75003C11.1119 5.75003 13.6613 8.68946 14.2838 9.48321C13.565 10.2638 10.6131 13.2501 7.49996 13.2501Z" fill="white"/>
<path d="M7.50003 7C6.12127 7 5 8.12127 5 9.50003C5 10.8788 6.12127 12.0001 7.50003 12.0001C8.87879 12.0001 10.0001 10.8788 10.0001 9.50003C10.0001 8.12127 8.87879 7 7.50003 7ZM7.50003 11.3751C6.46627 11.3751 5.625 10.5338 5.625 9.50006C5.625 8.4663 6.46627 7.62503 7.50003 7.62503C8.53378 7.62503 9.37506 8.4663 9.37506 9.50006C9.37506 10.5338 8.53378 11.3751 7.50003 11.3751Z" fill="white"/>
</g>
<defs>
<clipPath id="clip0">
<rect width="15" height="15" fill="white" transform="translate(0 2)"/>
</clipPath>
</defs>
</svg>
