<svg width="20" height="20" viewBox="0 0 20 20" fill="none" xmlns="http://www.w3.org/2000/svg">
<path d="M2.5 3.33331V0.833313H4.16667V3.33331H6.66667V4.99998H4.16667V7.49998H2.5V4.99998H0V3.33331H2.5ZM5 8.33331V5.83331H7.5V3.33331H13.3333L14.8583 4.99998H19.1667V18.3333H2.5V8.33331H5ZM10.8333 15.8333C13.1333 15.8333 15 13.9666 15 11.6666C15 9.36665 13.1333 7.49998 10.8333 7.49998C8.53333 7.49998 6.66667 9.36665 6.66667 11.6666C6.66667 13.9666 8.53333 15.8333 10.8333 15.8333ZM8.33333 11.6666C8.33333 13.05 9.45 14.1666 10.8333 14.1666C12.2167 14.1666 13.3333 13.05 13.3333 11.6666C13.3333 10.2833 12.2167 9.16665 10.8333 9.16665C9.45 9.16665 8.33333 10.2833 8.33333 11.6666Z" fill="#979299"/>
</svg>
