<svg width="40" height="40" viewBox="0 0 40 40" fill="none" xmlns="http://www.w3.org/2000/svg">
<path d="M26.9962 21.0913C26.6724 20.6826 26.7662 20.5013 26.9962 20.1363C26.9999 20.1326 29.6699 16.4438 29.9437 15.1926L29.9449 15.1913C30.0824 14.7351 29.9449 14.4001 29.2837 14.4001H27.0962C26.5399 14.4001 26.2824 14.6876 26.1462 15.0088C26.1462 15.0088 25.0324 17.6738 23.4574 19.4013C22.9487 19.9001 22.7149 20.0613 22.4362 20.0613C22.2987 20.0613 22.0874 19.9013 22.0874 19.4451V15.1913C22.0874 14.6451 21.9312 14.4001 21.4712 14.4001H18.0324C17.6837 14.4001 17.4762 14.6551 17.4762 14.8926C17.4762 15.4101 18.2637 15.5301 18.3449 16.9888V20.1538C18.3449 20.8463 18.2187 20.9738 17.9399 20.9738C17.1974 20.9738 15.3924 18.2976 14.3237 15.2363C14.1087 14.6426 13.8962 14.4013 13.3362 14.4013H11.1499C10.5262 14.4013 10.3999 14.6888 10.3999 15.0101C10.3999 15.5788 11.1424 18.4038 13.8562 22.1376C15.6649 24.6863 18.2112 26.0676 20.5274 26.0676C21.9199 26.0676 22.0899 25.7613 22.0899 25.2326C22.0899 22.7976 21.9637 22.5676 22.6612 22.5676C22.9849 22.5676 23.5412 22.7276 24.8412 23.9563C26.3261 25.4151 26.5711 26.0676 27.4024 26.0676H29.5899C30.2136 26.0676 30.5299 25.7613 30.3474 25.1563C29.9324 23.8851 27.1224 21.2663 26.9962 21.0913Z" fill="white"/>
<path d="M32.5 40H7.5C3.3575 40 0 36.6425 0 32.5V7.5C0 3.3575 3.3575 0 7.5 0H32.5C36.6425 0 40 3.3575 40 7.5V32.5C40 36.6425 36.6425 40 32.5 40Z" fill="#5E2AC3"/>
</svg>
