<svg width="40" height="40" viewBox="0 0 40 40" fill="none" xmlns="http://www.w3.org/2000/svg">
<path fill-rule="evenodd" clip-rule="evenodd" d="M31.76 15.1671C31.76 15.1671 31.5253 13.5016 30.806 12.7682C29.8933 11.8052 28.8703 11.8007 28.4015 11.7449C25.043 11.5002 20.0052 11.5002 20.0052 11.5002H19.9948C19.9948 11.5002 14.957 11.5002 11.5985 11.7449C11.129 11.8007 10.1068 11.8052 9.19325 12.7682C8.474 13.5017 8.24 15.1671 8.24 15.1671C8.24 15.1671 8 17.1235 8 19.0789V20.9129C8 22.8691 8.24 24.8247 8.24 24.8247C8.24 24.8247 8.474 26.4902 9.19325 27.2236C10.1068 28.1866 11.306 28.1564 11.84 28.2569C13.76 28.4427 20 28.5001 20 28.5001C20 28.5001 25.043 28.4926 28.4015 28.2479C28.8703 28.1912 29.8933 28.1867 30.806 27.2237C31.5253 26.4902 31.76 24.8249 31.76 24.8249C31.76 24.8249 32 22.8692 32 20.9129V19.0789C32 17.1235 31.76 15.1671 31.76 15.1671ZM17.522 23.1351L17.5212 16.3441L24.0057 19.7513L17.522 23.1351Z" fill="white"/>
<path d="M32.5 40H7.5C3.3575 40 0 36.6425 0 32.5V7.5C0 3.3575 3.3575 0 7.5 0H32.5C36.6425 0 40 3.3575 40 7.5V32.5C40 36.6425 36.6425 40 32.5 40Z" fill="#5E2AC3"/>
</svg>
