<svg width="29" height="29" viewBox="0 0 29 29" fill="none" xmlns="http://www.w3.org/2000/svg">
<path d="M4.85142 3.9091L4.85106 3.9091C2.88475 3.91133 1.29133 5.50475 1.28911 7.47105V7.47142L1.28911 24.3584L1.28911 24.3588C1.29133 26.3251 2.88475 27.9185 4.85106 27.9207H4.85142H23.0342L23.0345 27.9207C25.0009 27.9185 26.5943 26.3251 26.5965 24.3588V24.3584V18.6044C26.5965 18.0685 26.1621 17.6342 25.6263 17.6342C25.0904 17.6342 24.656 18.0685 24.656 18.6044V24.3578C24.655 25.2534 23.9294 25.9791 23.0339 25.98H4.85173C3.9563 25.9791 3.23075 25.2536 3.22959 24.358V7.47161C3.23075 6.57636 3.95617 5.85074 4.85161 5.84958H10.6051C11.141 5.84958 11.5754 5.41523 11.5754 4.87934C11.5754 4.34379 11.1411 3.9091 10.6051 3.9091L4.85142 3.9091Z" fill="white" stroke="white" stroke-width="0.644444"/>
<path d="M8.58082 20.7576L8.58117 20.758C8.82843 21.0049 9.18914 21.1001 9.52609 21.0068L9.52618 21.0068L15.0149 19.4862C15.1763 19.4415 15.3233 19.3558 15.442 19.2372L15.2369 19.0322L15.442 19.2372L27.0028 7.67592L27.003 7.67567C28.2656 6.41029 28.2656 4.36183 27.003 3.09645L27.0028 3.0962L26.2424 2.33579C24.9777 1.07111 22.9273 1.07111 21.6626 2.33579L10.1016 13.8969C9.98296 14.0155 9.89728 14.1626 9.85257 14.324L8.33233 19.8124C8.23865 20.1495 8.33395 20.5104 8.58082 20.7576ZM13.6101 17.9066L10.6579 18.6866L11.4341 15.885L12.0064 14.7366L21.4311 5.31166L21.4311 5.31164L22.3474 4.39512L22.3474 4.39504L23.0349 3.70786L23.0349 3.70782C23.5417 3.20108 24.3633 3.20108 24.8701 3.70782L24.8701 3.70786L25.6304 4.46791C25.6305 4.46797 25.6305 4.46803 25.6306 4.46809C26.1366 4.9757 26.1365 5.79694 25.6305 6.30417L24.9435 6.99112L24.9435 6.99115L24.0269 7.90746L24.0269 7.90749L14.5949 17.3395L13.6101 17.9066Z" fill="white" stroke="white" stroke-width="0.644444"/>
</svg>
