<svg width="40" height="40" viewBox="0 0 40 40" fill="none" xmlns="http://www.w3.org/2000/svg">
<path d="M24.7653 8.79999H16.0349C12.4867 8.79999 9.6001 11.6866 9.6001 15.2347V23.9652C9.6001 27.5134 12.4867 30.4 16.0349 30.4H24.7653C28.3135 30.4 31.2001 27.5134 31.2001 23.9652V15.2347C31.2001 11.6866 28.3134 8.79999 24.7653 8.79999ZM29.0271 23.9652C29.0271 26.3189 27.119 28.227 24.7653 28.227H16.0349C13.6811 28.227 11.7731 26.3189 11.7731 23.9652V15.2347C11.7731 12.881 13.6811 10.9729 16.0349 10.9729H24.7653C27.119 10.9729 29.0271 12.881 29.0271 15.2347V23.9652Z" fill="white"/>
<path d="M20.4 14.0135C17.3196 14.0135 14.8135 16.5196 14.8135 19.6C14.8135 22.6804 17.3196 25.1865 20.4 25.1865C23.4804 25.1865 25.9865 22.6804 25.9865 19.6C25.9865 16.5196 23.4804 14.0135 20.4 14.0135ZM20.4 23.0136C18.5147 23.0136 16.9864 21.4853 16.9864 19.6C16.9864 17.7147 18.5148 16.1864 20.4 16.1864C22.2853 16.1864 23.8136 17.7147 23.8136 19.6C23.8136 21.4853 22.2852 23.0136 20.4 23.0136Z" fill="white"/>
<path d="M25.9973 15.3941C26.7367 15.3941 27.336 14.7948 27.336 14.0554C27.336 13.3161 26.7367 12.7168 25.9973 12.7168C25.258 12.7168 24.6587 13.3161 24.6587 14.0554C24.6587 14.7948 25.258 15.3941 25.9973 15.3941Z" fill="white"/>
<path d="M32.5 40H7.5C3.3575 40 0 36.6425 0 32.5V7.5C0 3.3575 3.3575 0 7.5 0H32.5C36.6425 0 40 3.3575 40 7.5V32.5C40 36.6425 36.6425 40 32.5 40Z" fill="#5E2AC3"/>
</svg>
