<svg width="22" height="22" viewBox="0 0 22 22" fill="none" xmlns="http://www.w3.org/2000/svg">
<g clip-path="url(#clip0_1207_19186)">
<path fill-rule="evenodd" clip-rule="evenodd" d="M11.0065 0.0131836C17.0708 0.0131836 21.9869 4.92926 21.9869 10.9936C21.9869 17.0579 17.0708 21.974 11.0065 21.974C4.9422 21.974 0.026123 17.0579 0.026123 10.9936C0.026123 4.92926 4.9422 0.0131836 11.0065 0.0131836ZM11.0065 8.7975C10.1979 8.7975 9.54246 9.45292 9.54246 10.2616V16.1178C9.54246 16.9264 10.1979 17.5818 11.0065 17.5818C11.8151 17.5818 12.4706 16.9264 12.4706 16.1178V10.2616C12.4706 9.45292 11.8151 8.7975 11.0065 8.7975ZM11.0065 4.40534C10.1979 4.40534 9.54246 5.06077 9.54246 5.86939C9.54246 6.67802 10.1979 7.33345 11.0065 7.33345C11.8151 7.33345 12.4706 6.67802 12.4706 5.86939C12.4706 5.06077 11.8151 4.40534 11.0065 4.40534Z" fill="white"/>
</g>
<defs>
<clipPath id="clip0_1207_19186">
<rect width="22" height="22" fill="white"/>
</clipPath>
</defs>
</svg>
