<svg width="40" height="40" viewBox="0 0 40 40" fill="none" xmlns="http://www.w3.org/2000/svg">
<path d="M32.5 40H7.5C3.3575 40 0 36.6425 0 32.5V7.5C0 3.3575 3.3575 0 7.5 0H32.5C36.6425 0 40 3.3575 40 7.5V32.5C40 36.6425 36.6425 40 32.5 40Z" fill="#AD00FF"/>
<path d="M24.7649 8.7998H16.0344C12.4862 8.7998 9.59961 11.6864 9.59961 15.2346V23.965C9.59961 27.5132 12.4862 30.3998 16.0344 30.3998H24.7649C28.313 30.3998 31.1996 27.5132 31.1996 23.965V15.2346C31.1996 11.6864 28.313 8.7998 24.7649 8.7998ZM29.0267 23.965C29.0267 26.3188 27.1186 28.2268 24.7649 28.2268H16.0344C13.6807 28.2268 11.7726 26.3188 11.7726 23.965V15.2346C11.7726 12.8808 13.6807 10.9728 16.0344 10.9728H24.7649C27.1186 10.9728 29.0267 12.8808 29.0267 15.2346V23.965Z" fill="white"/>
<path d="M20.4 14.0132C17.3196 14.0132 14.8135 16.5193 14.8135 19.5997C14.8135 22.6801 17.3196 25.1862 20.4 25.1862C23.4804 25.1862 25.9865 22.6801 25.9865 19.5997C25.9865 16.5193 23.4804 14.0132 20.4 14.0132ZM20.4 23.0133C18.5147 23.0133 16.9864 21.485 16.9864 19.5997C16.9864 17.7144 18.5148 16.1861 20.4 16.1861C22.2853 16.1861 23.8136 17.7144 23.8136 19.5997C23.8136 21.485 22.2852 23.0133 20.4 23.0133Z" fill="white"/>
<path d="M25.9969 15.3941C26.7362 15.3941 27.3355 14.7948 27.3355 14.0554C27.3355 13.3161 26.7362 12.7168 25.9969 12.7168C25.2575 12.7168 24.6582 13.3161 24.6582 14.0554C24.6582 14.7948 25.2575 15.3941 25.9969 15.3941Z" fill="white"/>
</svg>
