<svg width="281" height="235" viewBox="0 0 281 235" fill="none" xmlns="http://www.w3.org/2000/svg">
<path d="M-3 35C-3 35 83.5857 53.8705 102.56 87.5296C120.536 119.416 59.3507 145.096 83.5496 174.714C103.054 198.587 146.796 186.01 169.599 208.275C197.214 235.238 181.606 294 181.606 294" stroke="url(#paint0_linear)"/>
<path d="M0 1.27985C0 1.27985 122.337 -4.42642 160.85 35.695C191.61 67.7401 151.063 101.913 176.24 136.671C200.381 170 259.091 162.871 274.537 199.072C280.268 212.505 279.998 235 279.998 235" stroke="url(#paint1_linear)"/>
<defs>
<linearGradient id="paint0_linear" x1="234.562" y1="782.568" x2="-177.011" y2="737.379" gradientUnits="userSpaceOnUse">
<stop stop-color="#4430FD"/>
<stop offset="1" stop-color="#E03DEE"/>
</linearGradient>
<linearGradient id="paint1_linear" x1="351.944" y1="676.409" x2="-245.769" y2="568.796" gradientUnits="userSpaceOnUse">
<stop stop-color="#4430FD"/>
<stop offset="1" stop-color="#E03DEE"/>
</linearGradient>
</defs>
</svg>
