<svg width="94" height="97" viewBox="0 0 94 97" fill="none" xmlns="http://www.w3.org/2000/svg">
<path d="M3.13777 83.6948H7.38524C8.06126 83.6948 8.60974 83.4652 9.03066 83.0061C9.46433 82.5341 9.68117 81.9155 9.68117 81.1502C9.68117 80.3849 9.46433 79.7726 9.03066 79.3134C8.60974 78.8415 8.06126 78.6055 7.38524 78.6055H3.13777V83.6948ZM1.53062 91.0035V77.228H7.46177C8.5332 77.228 9.43882 77.5468 10.1786 78.1846C10.9184 78.8224 11.2883 79.8109 11.2883 81.1502C11.2883 82.4895 10.9184 83.478 10.1786 84.1158C9.43882 84.7535 8.5332 85.0724 7.46177 85.0724H3.13777V91.0035H1.53062ZM12.5091 91.0035H10.9019L15.7999 77.228H17.8662L22.7642 91.0035H21.1571L19.6839 86.8135H13.9823L12.5091 91.0035ZM19.2055 85.4359L16.8331 78.7203L14.4606 85.4359H19.2055ZM24.6805 91.0035V77.228H26.5938L34.3617 88.7076V77.228H35.9688V91.0035H34.0555L26.2876 79.5239V91.0035H24.6805ZM40.6372 89.626H44.3107C45.7775 89.626 46.9064 89.1094 47.6972 88.0762C48.5008 87.0431 48.9025 85.7229 48.9025 84.1158C48.9025 82.5086 48.5008 81.1884 47.6972 80.1553C46.9064 79.1221 45.7775 78.6055 44.3107 78.6055H40.6372V89.626ZM39.03 91.0035V77.228H44.3872C46.2495 77.228 47.7354 77.8849 48.8451 79.1986C49.9548 80.4997 50.5097 82.1387 50.5097 84.1158C50.5097 86.0928 49.9548 87.7382 48.8451 89.052C47.7354 90.353 46.2495 91.0035 44.3872 91.0035H39.03ZM54.9815 79.7726C54.0887 80.793 53.6422 82.2407 53.6422 84.1158C53.6422 85.9908 54.0887 87.4448 54.9815 88.478C55.8744 89.4984 57.0606 90.0086 58.5402 90.0086C60.0198 90.0086 61.206 89.4984 62.0989 88.478C62.9918 87.4448 63.4382 85.9908 63.4382 84.1158C63.4382 82.2407 62.9918 80.793 62.0989 79.7726C61.206 78.7395 60.0198 78.2229 58.5402 78.2229C57.0606 78.2229 55.8744 78.7395 54.9815 79.7726ZM53.8527 89.4921C52.641 88.2165 52.0351 86.4244 52.0351 84.1158C52.0351 81.8071 52.641 80.0213 53.8527 78.7586C55.0772 77.4831 56.6397 76.8453 58.5402 76.8453C60.4407 76.8453 61.9969 77.4831 63.2086 78.7586C64.4331 80.0213 65.0454 81.8071 65.0454 84.1158C65.0454 86.4244 64.4331 88.2165 63.2086 89.4921C61.9969 90.7548 60.4407 91.3862 58.5402 91.3862C56.6397 91.3862 55.0772 90.7548 53.8527 89.4921ZM68.9439 83.6948H73.1914C73.8674 83.6948 74.4159 83.4652 74.8368 83.0061C75.2705 82.5341 75.4873 81.9155 75.4873 81.1502C75.4873 80.3849 75.2705 79.7726 74.8368 79.3134C74.4159 78.8415 73.8674 78.6055 73.1914 78.6055H68.9439V83.6948ZM67.3368 91.0035V77.228H73.2679C74.3394 77.228 75.245 77.5468 75.9848 78.1846C76.7246 78.8224 77.0945 79.8109 77.0945 81.1502C77.0945 82.1578 76.8713 82.9678 76.4248 83.58C75.9912 84.1923 75.4108 84.6196 74.6838 84.8619L77.6685 91.0035H75.9465L73.0958 85.0724H68.9439V91.0035H67.3368ZM79.8474 91.0035H78.2402L83.1382 77.228H85.2045L90.1025 91.0035H88.4954L87.0221 86.8135H81.3206L79.8474 91.0035ZM86.5438 85.4359L84.1714 78.7203L81.7989 85.4359H86.5438Z" fill="white"/>
<rect x="15.0146" width="48.2851" height="41.0511" fill="url(#paint0_linear_355:839)"/>
<rect x="81.7832" y="59.4148" width="48.2851" height="41.0511" transform="rotate(180 81.7832 59.4148)" fill="url(#paint1_linear_355:839)"/>
<path d="M58.4376 28.2741L45.9681 28.2741C45.9681 28.2741 45.2923 35.7734 48.4098 39.658C53.454 45.9437 62.8773 45.0615 67.2131 38.2742C71.1847 32.0572 69.2933 23.0928 64.0122 17.9264C56.5193 10.5963 44.1299 11.3437 38.193 19.9668C34.2882 25.6385 36.5178 37.1885 35.2591 45.9089C34.0236 54.468 24.9901 60.4831 24.9901 60.4831" stroke="white" stroke-width="2.78581"/>
<defs>
<linearGradient id="paint0_linear_355:839" x1="6.62753" y1="-8.45304" x2="62.3161" y2="45.5691" gradientUnits="userSpaceOnUse">
<stop stop-color="#5F26CD"/>
<stop offset="0.472217" stop-color="#28266D" stop-opacity="0"/>
</linearGradient>
<linearGradient id="paint1_linear_355:839" x1="78.87" y1="53.9742" x2="129.147" y2="104.876" gradientUnits="userSpaceOnUse">
<stop stop-color="#5E2AC3"/>
<stop offset="0.472217" stop-color="#28266D" stop-opacity="0"/>
</linearGradient>
</defs>
</svg>
