<svg width="124" height="127" viewBox="0 0 124 127" fill="none" xmlns="http://www.w3.org/2000/svg">
<path d="M4.13919 110.385H9.74223C10.634 110.385 11.3575 110.082 11.9128 109.476C12.4849 108.853 12.7709 108.037 12.7709 107.028C12.7709 106.018 12.4849 105.211 11.9128 104.605C11.3575 103.982 10.634 103.671 9.74223 103.671H4.13919V110.385ZM2.01912 120.026V101.854H9.84319C11.2566 101.854 12.4512 102.274 13.4271 103.116C14.403 103.957 14.891 105.261 14.891 107.028C14.891 108.795 14.403 110.099 13.4271 110.94C12.4512 111.781 11.2566 112.202 9.84319 112.202H4.13919V120.026H2.01912ZM16.5013 120.026H14.3813L20.8424 101.854H23.5682L30.0294 120.026H27.9093L25.9659 114.499H18.4447L16.5013 120.026ZM25.335 112.681L22.2053 103.822L19.0757 112.681H25.335ZM32.5572 120.026V101.854H35.0811L45.3282 116.997V101.854H47.4482V120.026H44.9243L34.6773 104.883V120.026H32.5572ZM53.6065 118.209H58.4524C60.3874 118.209 61.8765 117.527 62.9197 116.164C63.9797 114.801 64.5097 113.06 64.5097 110.94C64.5097 108.82 63.9797 107.078 62.9197 105.715C61.8765 104.352 60.3874 103.671 58.4524 103.671H53.6065V118.209ZM51.4865 120.026V101.854H58.5534C61.0099 101.854 62.9702 102.72 64.434 104.453C65.8979 106.17 66.6298 108.332 66.6298 110.94C66.6298 113.548 65.8979 115.718 64.434 117.452C62.9702 119.168 61.0099 120.026 58.5534 120.026H51.4865ZM72.5288 105.211C71.351 106.557 70.7621 108.466 70.7621 110.94C70.7621 113.413 71.351 115.331 72.5288 116.694C73.7066 118.04 75.2715 118.713 77.2233 118.713C79.1751 118.713 80.7399 118.04 81.9177 116.694C83.0955 115.331 83.6844 113.413 83.6844 110.94C83.6844 108.466 83.0955 106.557 81.9177 105.211C80.7399 103.848 79.1751 103.166 77.2233 103.166C75.2715 103.166 73.7066 103.848 72.5288 105.211ZM71.0397 118.032C69.4413 116.349 68.642 113.985 68.642 110.94C68.642 107.894 69.4413 105.539 71.0397 103.873C72.655 102.19 74.7162 101.349 77.2233 101.349C79.7303 101.349 81.7831 102.19 83.3816 103.873C84.9969 105.539 85.8045 107.894 85.8045 110.94C85.8045 113.985 84.9969 116.349 83.3816 118.032C81.7831 119.698 79.7303 120.531 77.2233 120.531C74.7162 120.531 72.655 119.698 71.0397 118.032ZM90.9473 110.385H96.5504C97.4422 110.385 98.1657 110.082 98.7209 109.476C99.293 108.853 99.5791 108.037 99.5791 107.028C99.5791 106.018 99.293 105.211 98.7209 104.605C98.1657 103.982 97.4422 103.671 96.5504 103.671H90.9473V110.385ZM88.8273 120.026V101.854H96.6513C98.0647 101.854 99.2594 102.274 100.235 103.116C101.211 103.957 101.699 105.261 101.699 107.028C101.699 108.357 101.405 109.426 100.816 110.233C100.244 111.041 99.4781 111.604 98.519 111.924L102.456 120.026H100.185L96.4242 112.202H90.9473V120.026H88.8273ZM105.331 120.026H103.21L109.672 101.854H112.397L118.859 120.026H116.739L114.795 114.499H107.274L105.331 120.026ZM114.164 112.681L111.035 103.822L107.905 112.681H114.164Z" fill="white"/>
<rect x="19.8066" width="63.6952" height="54.1526" fill="url(#paint0_linear)"/>
<rect x="107.885" y="78.377" width="63.6952" height="54.1526" transform="rotate(180 107.885 78.377)" fill="url(#paint1_linear)"/>
<path d="M77.0885 37.2976L60.6394 37.2976C60.6394 37.2976 59.7479 47.1902 63.8603 52.3147C70.5144 60.6063 82.9452 59.4426 88.6647 50.4891C93.9038 42.288 91.4088 30.4626 84.4422 23.6474C74.5579 13.9779 58.2145 14.9639 50.3829 26.339C45.2318 33.8208 48.173 49.057 46.5126 60.5605C44.8828 71.8512 32.9662 79.7861 32.9662 79.7861" stroke="white" stroke-width="3.6749"/>
<defs>
<linearGradient id="paint0_linear" x1="8.74278" y1="-11.1508" x2="82.2042" y2="60.1125" gradientUnits="userSpaceOnUse">
<stop stop-color="#5F26CD"/>
<stop offset="0.472217" stop-color="#28266D" stop-opacity="0"/>
</linearGradient>
<linearGradient id="paint1_linear" x1="104.042" y1="71.2" x2="170.364" y2="138.347" gradientUnits="userSpaceOnUse">
<stop stop-color="#5E2AC3"/>
<stop offset="0.472217" stop-color="#28266D" stop-opacity="0"/>
</linearGradient>
</defs>
</svg>
