<svg width="32" height="32" viewBox="0 0 32 32" fill="none" xmlns="http://www.w3.org/2000/svg">
<path d="M20.0513 23.2371H22.55V28.2344C22.55 30.301 20.8687 31.9822 18.802 31.9822H3.7478C1.6814 31.9822 0 30.301 0 28.2344V3.7478C0 1.6814 1.6814 0 3.7478 0H18.802C20.8687 0 22.55 1.6814 22.55 3.7478V8.74512H20.0513V3.7478C20.0513 3.05908 19.491 2.49854 18.802 2.49854H3.7478C3.05908 2.49854 2.49854 3.05908 2.49854 3.7478V28.2344C2.49854 28.9231 3.05908 29.4836 3.7478 29.4836H18.802C19.491 29.4836 20.0513 28.9231 20.0513 28.2344V23.2371ZM26.1106 10.1016L24.3438 11.8684L27.217 14.7419H11.0564V17.2405H27.217L24.3438 20.1138L26.1106 21.8806L32 15.9912L26.1106 10.1016Z" fill="#3532DE"/>
</svg>
