<svg width="44" height="44" viewBox="0 0 44 44" fill="none" xmlns="http://www.w3.org/2000/svg">
<path d="M29.3333 22.0002H23.8333C22.825 22.0002 22 22.8252 22 23.8335V29.3335C22 30.3418 22.825 31.1668 23.8333 31.1668H29.3333C30.3417 31.1668 31.1667 30.3418 31.1667 29.3335V23.8335C31.1667 22.8252 30.3417 22.0002 29.3333 22.0002ZM29.3333 3.66683V5.50016H14.6667V3.66683C14.6667 2.6585 13.8417 1.8335 12.8333 1.8335C11.825 1.8335 11 2.6585 11 3.66683V5.50016H9.16667C7.13167 5.50016 5.51833 7.15016 5.51833 9.16683L5.5 34.8335C5.5 36.8502 7.13167 38.5002 9.16667 38.5002H34.8333C36.85 38.5002 38.5 36.8502 38.5 34.8335V9.16683C38.5 7.15016 36.85 5.50016 34.8333 5.50016H33V3.66683C33 2.6585 32.175 1.8335 31.1667 1.8335C30.1583 1.8335 29.3333 2.6585 29.3333 3.66683ZM33 34.8335H11C9.99167 34.8335 9.16667 34.0085 9.16667 33.0002V14.6668H34.8333V33.0002C34.8333 34.0085 34.0083 34.8335 33 34.8335Z" fill="white"/>
</svg>
