<svg width="44" height="44" viewBox="0 0 44 44" fill="none" xmlns="http://www.w3.org/2000/svg">
<path d="M31.167 36.6667H7.33366V12.8333C7.33366 11.825 6.50866 11 5.50033 11C4.49199 11 3.66699 11.825 3.66699 12.8333V36.6667C3.66699 38.6833 5.31699 40.3333 7.33366 40.3333H31.167C32.1753 40.3333 33.0003 39.5083 33.0003 38.5C33.0003 37.4917 32.1753 36.6667 31.167 36.6667Z" fill="white"/>
<path d="M36.6667 3.6665H14.6667C12.65 3.6665 11 5.3165 11 7.33317V29.3332C11 31.3498 12.65 32.9998 14.6667 32.9998H36.6667C38.6833 32.9998 40.3333 31.3498 40.3333 29.3332V7.33317C40.3333 5.3165 38.6833 3.6665 36.6667 3.6665ZM25.685 27.4998C24.6033 27.4998 23.76 26.6382 23.76 25.5748C23.76 24.4932 24.6217 23.6682 25.685 23.6682C26.7667 23.6682 27.5917 24.4932 27.5917 25.5748C27.5733 26.6382 26.7667 27.4998 25.685 27.4998ZM30.2683 16.1882C29.1133 17.8932 28.0133 18.4065 27.4083 19.5065C27.2617 19.7632 27.17 19.9832 27.115 20.4048C27.0233 21.1198 26.455 21.6515 25.74 21.6515H25.685C24.8783 21.6515 24.2367 20.9548 24.31 20.1482C24.365 19.6348 24.475 19.1032 24.7683 18.6082C25.52 17.2698 26.9317 16.4815 27.7567 15.3082C28.6367 14.0615 28.1417 11.7515 25.6667 11.7515C24.5483 11.7515 23.815 12.3382 23.3567 13.0348C23.0083 13.5665 22.3117 13.7498 21.725 13.4932C20.955 13.1632 20.625 12.2098 21.1017 11.5315C22.0367 10.1748 23.595 9.1665 25.6483 9.1665C27.9033 9.1665 29.4617 10.1932 30.25 11.4765C30.9283 12.5948 31.3133 14.6482 30.2683 16.1882Z" fill="white"/>
</svg>
