<svg width="29" height="29" viewBox="0 0 29 29" fill="none" xmlns="http://www.w3.org/2000/svg">
<path d="M4.85045 3.90898L4.85008 3.90898C2.88377 3.91121 1.29036 5.50462 1.28813 7.47093V7.4713L1.28813 24.3583L1.28813 24.3586C1.29036 26.3249 2.88377 27.9184 4.85008 27.9206H4.85045H23.0332H23.0336C24.9999 27.9184 26.5933 26.3249 26.5955 24.3586V24.3583V18.6043C26.5955 18.0684 26.1612 17.6341 25.6253 17.6341C25.0894 17.6341 24.655 18.0684 24.655 18.6043V24.3576C24.654 25.2533 23.9284 25.979 23.0329 25.9799H4.85075C3.95532 25.979 3.22977 25.2534 3.22861 24.3578V7.47148C3.22977 6.57624 3.95519 5.85062 4.85063 5.84946H10.6041C11.14 5.84946 11.5744 5.41511 11.5744 4.87922C11.5744 4.34367 11.1401 3.90898 10.6041 3.90898L4.85045 3.90898Z" fill="#00B0A6" stroke="#00B0A6" stroke-width="0.644444"/>
<path d="M10 14L15.6279 20L25 4" stroke="#00B0A6" stroke-width="3" stroke-linecap="round" stroke-linejoin="round"/>
</svg>
