<svg width="35" height="35" viewBox="0 0 35 35" fill="none" xmlns="http://www.w3.org/2000/svg">
<g clip-path="url(#clip0_380:5081)">
<path d="M6.05337 10.4995C7.34178 10.4995 8.44145 10.044 9.3527 9.13245C10.2643 8.221 10.7201 7.12101 10.7201 5.83286C10.7201 4.54484 10.2643 3.44485 9.3527 2.53328C8.44145 1.62183 7.34172 1.16602 6.05337 1.16602C4.76509 1.16602 3.66536 1.62183 2.75392 2.53328C1.84254 3.44485 1.38672 4.54458 1.38672 5.83286C1.38672 7.12127 1.84254 8.221 2.75392 9.13245C3.66536 10.0437 4.76509 10.4995 6.05337 10.4995Z" fill="white"/>
<path d="M12.5489 17.7827C13.9161 19.1495 15.5656 19.8332 17.4982 19.8332C19.4308 19.8332 21.0803 19.1495 22.4474 17.7827C23.8144 16.4151 24.4981 14.7653 24.4981 12.8331C24.4981 10.9008 23.8144 9.25116 22.4474 7.8839C21.0803 6.51664 19.4308 5.83301 17.4982 5.83301C15.5656 5.83301 13.9159 6.51677 12.5489 7.8839C11.1818 9.25097 10.498 10.9006 10.498 12.8331C10.498 14.7657 11.1818 16.4153 12.5489 17.7827Z" fill="white"/>
<path d="M28.9451 10.4995C30.2329 10.4995 31.3329 10.044 32.2442 9.13245C33.1556 8.221 33.6112 7.12101 33.6112 5.83286C33.6112 4.54484 33.1556 3.44485 32.2442 2.53328C31.3329 1.62183 30.2329 1.16602 28.9451 1.16602C27.6564 1.16602 26.5567 1.62183 25.6453 2.53328C24.7341 3.44485 24.2783 4.54458 24.2783 5.83286C24.2783 7.12127 24.7341 8.221 25.6453 9.13245C26.5567 10.0437 27.6564 10.4995 28.9451 10.4995Z" fill="white"/>
<path d="M33.6843 10.5C33.6118 10.5 33.3475 10.6276 32.8916 10.8828C32.4363 11.1382 31.8435 11.3964 31.1145 11.6578C30.3856 11.9189 29.6622 12.0496 28.9455 12.0496C28.1309 12.0496 27.3233 11.9099 26.5209 11.6303C26.5813 12.0797 26.6118 12.4808 26.6118 12.8333C26.6118 14.5225 26.1196 16.078 25.1348 17.4999C27.1039 17.5609 28.7139 18.3385 29.9661 19.8338H32.4087C33.4051 19.8338 34.2436 19.5871 34.9241 19.095C35.6045 18.6032 35.945 17.8828 35.945 16.935C35.9452 12.6447 35.192 10.4997 33.6843 10.5Z" fill="white"/>
<path d="M30.0134 26.1844C29.8858 25.4734 29.7246 24.814 29.5301 24.2065C29.3356 23.5986 29.0743 23.0066 28.7466 22.4292C28.4184 21.8524 28.0415 21.3599 27.6161 20.9526C27.1904 20.5453 26.6708 20.2206 26.0573 19.9772C25.4438 19.7342 24.766 19.6128 24.0248 19.6128C23.9031 19.6128 23.642 19.7435 23.2409 20.0048C22.8397 20.2659 22.3965 20.5581 21.9102 20.8797C21.424 21.2013 20.7744 21.4932 19.9596 21.7545C19.1448 22.0159 18.3246 22.1466 17.4986 22.1466C16.6723 22.1466 15.8519 22.0159 15.0376 21.7545C14.2232 21.4932 13.5732 21.2013 13.087 20.8797C12.6008 20.5581 12.1573 20.2659 11.7564 20.0048C11.3552 19.7435 11.0941 19.6128 10.9724 19.6128C10.2311 19.6128 9.55363 19.7342 8.93985 19.9772C8.32607 20.2206 7.8066 20.5453 7.3813 20.9526C6.95562 21.3594 6.57923 21.8524 6.25086 22.4292C5.92286 23.0066 5.66159 23.5986 5.46711 24.2065C5.27269 24.814 5.11185 25.4734 4.98403 26.1844C4.85633 26.8955 4.77135 27.5575 4.72882 28.1715C4.68624 28.7853 4.66504 29.4144 4.66504 30.0585C4.66504 31.5165 5.10847 32.6682 5.99559 33.5126C6.88302 34.3568 8.06193 34.7795 9.53211 34.7795H25.4647C26.935 34.7795 28.1138 34.3568 29.0014 33.5126C29.8885 32.6682 30.3321 31.5165 30.3321 30.0585C30.3321 29.4144 30.3107 28.7855 30.2687 28.1715C30.2256 27.5575 30.1406 26.8954 30.0134 26.1844Z" fill="white"/>
<path d="M9.86255 17.4999C8.87812 16.078 8.38604 14.5225 8.38623 12.8333C8.38623 12.4808 8.41669 12.0799 8.47734 11.6303C7.67515 11.9097 6.86701 12.0495 6.05275 12.0495C5.33572 12.0495 4.61283 11.9189 3.88354 11.6578C3.15458 11.3964 2.56193 11.1382 2.10637 10.8828C1.65062 10.6276 1.38609 10.5 1.31324 10.5C-0.193785 10.5001 -0.947266 12.6451 -0.947266 16.935C-0.947266 17.8828 -0.606951 18.6032 0.0734869 19.095C0.754116 19.5871 1.59271 19.8333 2.58894 19.8333H5.0318C6.28369 18.3385 7.8937 17.5609 9.86255 17.4999Z" fill="white"/>
</g>
<defs>
<clipPath id="clip0_380:5081">
<rect width="35" height="35" fill="white"/>
</clipPath>
</defs>
</svg>
