<svg width="40" height="40" viewBox="0 0 40 40" fill="none" xmlns="http://www.w3.org/2000/svg">
<path d="M32.5 40H7.5C3.3575 40 0 36.6425 0 32.5V7.5C0 3.3575 3.3575 0 7.5 0H32.5C36.6425 0 40 3.3575 40 7.5V32.5C40 36.6425 36.6425 40 32.5 40Z" fill="#AD00FF"/>
<path d="M18.1063 22.0178L17.8152 26.2616C18.2317 26.2616 18.4121 26.0762 18.6284 25.8535L20.5814 23.9193L24.628 26.9905C25.3701 27.4191 25.893 27.1934 26.0932 26.2829L28.7494 13.3843L28.7501 13.3835C28.9855 12.2465 28.3534 11.8019 27.6303 12.0809L12.0173 18.2756C10.9517 18.7042 10.9679 19.3198 11.8361 19.5988L15.8278 20.8854L25.0995 14.8731C25.5359 14.5737 25.9326 14.7393 25.6063 15.0388L18.1063 22.0178Z" fill="white"/>
</svg>
