<svg width="40" height="40" viewBox="0 0 40 40" fill="none" xmlns="http://www.w3.org/2000/svg">
<path d="M32.5 40H7.5C3.3575 40 0 36.6425 0 32.5V7.5C0 3.3575 3.3575 0 7.5 0H32.5C36.6425 0 40 3.3575 40 7.5V32.5C40 36.6425 36.6425 40 32.5 40Z" fill="#AD00FF"/>
<path d="M26.9966 21.0912C26.6729 20.6824 26.7666 20.5012 26.9966 20.1362C27.0004 20.1324 29.6704 16.4437 29.9441 15.1924L29.9454 15.1912C30.0829 14.7349 29.9454 14.3999 29.2841 14.3999H27.0966C26.5404 14.3999 26.2829 14.6874 26.1466 15.0087C26.1466 15.0087 25.0329 17.6737 23.4579 19.4012C22.9491 19.8999 22.7154 20.0612 22.4366 20.0612C22.2991 20.0612 22.0879 19.9012 22.0879 19.4449V15.1912C22.0879 14.6449 21.9316 14.3999 21.4716 14.3999H18.0329C17.6841 14.3999 17.4766 14.6549 17.4766 14.8924C17.4766 15.4099 18.2641 15.5299 18.3454 16.9887V20.1537C18.3454 20.8462 18.2191 20.9737 17.9404 20.9737C17.1979 20.9737 15.3929 18.2974 14.3241 15.2362C14.1091 14.6424 13.8966 14.4012 13.3366 14.4012H11.1504C10.5266 14.4012 10.4004 14.6887 10.4004 15.0099C10.4004 15.5787 11.1429 18.4037 13.8566 22.1374C15.6654 24.6862 18.2116 26.0674 20.5279 26.0674C21.9204 26.0674 22.0904 25.7612 22.0904 25.2324C22.0904 22.7974 21.9641 22.5674 22.6616 22.5674C22.9854 22.5674 23.5416 22.7274 24.8416 23.9562C26.3266 25.4149 26.5716 26.0674 27.4029 26.0674H29.5904C30.2141 26.0674 30.5304 25.7612 30.3479 25.1562C29.9329 23.8849 27.1229 21.2662 26.9966 21.0912Z" fill="white"/>
</svg>
