<?xml version="1.0" standalone="no"?>
<!DOCTYPE svg PUBLIC "-//W3C//DTD SVG 20010904//EN"
 "http://www.w3.org/TR/2001/REC-SVG-20010904/DTD/svg10.dtd">
<svg version="1.0" xmlns="http://www.w3.org/2000/svg"
 width="700.000000pt" height="700.000000pt" viewBox="0 0 700.000000 700.000000"
 preserveAspectRatio="xMidYMid meet">
<metadata>
Created by potrace 1.14, written by Peter Selinger 2001-2017
</metadata>
<g transform="translate(0.000000,700.000000) scale(0.100000,-0.100000)"
fill="#000000" stroke="none">
<path d="M1379 6996 c-2 -2 -35 -6 -73 -10 -38 -4 -72 -9 -76 -11 -4 -3 -25
-7 -46 -11 -20 -3 -49 -10 -63 -16 -14 -5 -26 -8 -26 -7 0 3 -103 -29 -130
-41 -220 -92 -380 -197 -528 -347 -228 -231 -383 -545 -424 -858 -10 -79 -10
-4323 0 -4395 4 -30 15 -84 23 -120 9 -36 17 -72 19 -80 7 -35 50 -150 80
-217 92 -201 226 -377 410 -538 59 -52 222 -154 315 -198 96 -45 252 -99 325
-112 22 -4 49 -10 60 -12 11 -2 45 -7 75 -11 79 -10 4291 -9 4375 1 38 5 72
10 75 12 3 2 21 6 40 9 124 20 340 107 477 193 387 243 625 608 698 1073 11
70 13 471 11 2230 -1 1180 -6 2163 -10 2185 -61 316 -171 553 -356 767 -70 81
-186 186 -276 248 -78 54 -239 141 -306 165 -49 18 -168 56 -183 59 -5 2 -35
8 -65 14 -30 7 -71 15 -90 19 -36 7 -4323 16 -4331 9z"/>
</g>
</svg>
