<svg width="15" height="20" viewBox="0 0 15 20" fill="none" xmlns="http://www.w3.org/2000/svg">
<g clip-path="url(#clip0)">
<path d="M9.26704 7.73203C9.14517 7.61016 8.94703 7.61016 8.82516 7.73203C8.70329 7.85391 8.70329 8.05266 8.82516 8.17391C9.17892 8.52767 9.37453 8.9983 9.37453 9.49954C9.37453 10.5333 8.53328 11.3745 7.49954 11.3745C6.9983 11.3745 6.52767 11.1795 6.17392 10.8252C6.05204 10.7033 5.85391 10.7033 5.73203 10.8252C5.61016 10.9464 5.61016 11.1452 5.73203 11.267C6.20327 11.7395 6.83139 11.9996 7.49954 11.9996C8.87828 11.9996 9.99952 10.8783 9.99952 9.49957C9.99952 8.83139 9.73954 8.20327 9.26704 7.73203Z" fill="white"/>
<path d="M7.9356 7.04312C7.79372 7.01813 7.64873 7 7.49999 7C6.12125 7 5 8.12125 5 9.49999C5 9.64873 5.01813 9.79374 5.04374 9.9356C5.07061 10.0869 5.2025 10.1937 5.35062 10.1937C5.36876 10.1937 5.38686 10.1925 5.40561 10.1887C5.57498 10.1587 5.68874 9.99621 5.65874 9.82685C5.63937 9.72059 5.62499 9.61249 5.62499 9.49999C5.62499 8.46625 6.46625 7.62499 7.49999 7.62499C7.61249 7.62499 7.72062 7.63937 7.82685 7.65812C7.99311 7.69187 8.15872 7.57436 8.18872 7.405C8.21872 7.23563 8.10499 7.07312 7.9356 7.04312Z" fill="white"/>
<path d="M14.9256 9.29806C14.8549 9.2143 13.1643 7.24119 10.8324 6.03308C10.6812 5.95371 10.4906 6.01371 10.4112 6.16746C10.3318 6.3206 10.3918 6.50933 10.5456 6.58872C12.3418 7.51872 13.7768 8.96997 14.2674 9.49998C13.5225 10.3068 10.5906 13.25 7.49996 13.25C6.45122 13.25 5.39434 12.9968 4.35747 12.4968C4.20372 12.4212 4.0156 12.4868 3.9406 12.6425C3.86499 12.7975 3.93061 12.9843 4.08624 13.0593C5.2081 13.6012 6.35686 13.875 7.49999 13.875C11.3506 13.875 14.7819 9.87246 14.9262 9.70183C15.0249 9.58555 15.0243 9.41493 14.9256 9.29806Z" fill="white"/>
<path d="M9.55066 5.485C8.83942 5.24562 8.14942 5.125 7.50003 5.125C3.6494 5.125 0.218157 9.1275 0.0737826 9.29813C-0.017477 9.40562 -0.024977 9.56189 0.0562924 9.67875C0.0994173 9.74063 1.13254 11.2075 2.92316 12.3969C2.97628 12.4325 3.03566 12.4494 3.09566 12.4494C3.1963 12.4494 3.29567 12.4006 3.35567 12.3088C3.4513 12.1656 3.41192 11.9713 3.26816 11.8762C1.95317 11.0019 1.05318 9.94626 0.716291 9.51689C1.43567 8.73563 4.38692 5.75002 7.50003 5.75002C8.08189 5.75002 8.70504 5.86003 9.35126 6.07688C9.51501 6.13562 9.69251 6.04501 9.74689 5.88062C9.80191 5.71688 9.7144 5.54002 9.55066 5.485Z" fill="white"/>
<path d="M13.0332 3.96641C12.9114 3.84453 12.7132 3.84453 12.5914 3.96641L1.96641 14.5914C1.84453 14.7133 1.84453 14.9114 1.96641 15.0333C2.02767 15.0939 2.10765 15.1245 2.18766 15.1245C2.26767 15.1245 2.34765 15.0939 2.40829 15.0333L13.0332 4.40829C13.1551 4.28642 13.1551 4.08828 13.0332 3.96641Z" fill="white"/>
</g>
<defs>
<clipPath id="clip0">
<rect width="15" height="15" fill="white" transform="translate(0 2)"/>
</clipPath>
</defs>
</svg>
