<svg width="270" height="270" viewBox="0 0 270 270" fill="none" xmlns="http://www.w3.org/2000/svg">
<rect width="270" height="270" rx="70" fill="#242424"/>
<path d="M48.0208 208.205H56.6371C58.0085 208.205 59.1211 207.739 59.975 206.808C60.8548 205.85 61.2946 204.595 61.2946 203.043C61.2946 201.49 60.8548 200.248 59.975 199.317C59.1211 198.359 58.0085 197.881 56.6371 197.881H48.0208V208.205ZM44.7605 223.031V195.086H56.7924C58.9659 195.086 60.803 195.733 62.3038 197.027C63.8045 198.321 64.5549 200.326 64.5549 203.043C64.5549 205.76 63.8045 207.765 62.3038 209.059C60.803 210.352 58.9659 210.999 56.7924 210.999H48.0208V223.031H44.7605ZM67.0313 223.031H63.7711L73.7071 195.086H77.8988L87.8348 223.031H84.5746L81.586 214.531H70.0199L67.0313 223.031ZM80.6157 211.737L75.8029 198.114L70.9902 211.737H80.6157ZM91.7221 223.031V195.086H95.6034L111.361 218.374V195.086H114.622V223.031H110.74L94.9824 199.744V223.031H91.7221ZM124.092 220.237H131.544C134.519 220.237 136.809 219.189 138.414 217.093C140.044 214.997 140.859 212.319 140.859 209.059C140.859 205.798 140.044 203.12 138.414 201.025C136.809 198.929 134.519 197.881 131.544 197.881H124.092V220.237ZM120.832 223.031V195.086H131.699C135.477 195.086 138.491 196.419 140.742 199.084C142.993 201.723 144.119 205.048 144.119 209.059C144.119 213.069 142.993 216.407 140.742 219.072C138.491 221.712 135.477 223.031 131.699 223.031H120.832ZM153.191 200.248C151.379 202.318 150.474 205.255 150.474 209.059C150.474 212.862 151.379 215.812 153.191 217.908C155.002 219.978 157.408 221.013 160.41 221.013C163.411 221.013 165.818 219.978 167.629 217.908C169.44 215.812 170.346 212.862 170.346 209.059C170.346 205.255 169.44 202.318 167.629 200.248C165.818 198.152 163.411 197.104 160.41 197.104C157.408 197.104 155.002 198.152 153.191 200.248ZM150.901 219.965C148.442 217.378 147.213 213.742 147.213 209.059C147.213 204.375 148.442 200.753 150.901 198.191C153.385 195.604 156.554 194.31 160.41 194.31C164.265 194.31 167.422 195.604 169.88 198.191C172.364 200.753 173.606 204.375 173.606 209.059C173.606 213.742 172.364 217.378 169.88 219.965C167.422 222.527 164.265 223.808 160.41 223.808C156.554 223.808 153.385 222.527 150.901 219.965ZM181.515 208.205H190.131C191.502 208.205 192.615 207.739 193.469 206.808C194.349 205.85 194.788 204.595 194.788 203.043C194.788 201.49 194.349 200.248 193.469 199.317C192.615 198.359 191.502 197.881 190.131 197.881H181.515V208.205ZM178.254 223.031V195.086H190.286C192.46 195.086 194.297 195.733 195.798 197.027C197.298 198.321 198.049 200.326 198.049 203.043C198.049 205.087 197.596 206.73 196.69 207.972C195.81 209.214 194.633 210.081 193.158 210.572L199.213 223.031H195.72L189.937 210.999H181.515V223.031H178.254ZM203.633 223.031H200.373L210.309 195.086H214.501L224.437 223.031H221.176L218.188 214.531H206.622L203.633 223.031ZM217.217 211.737L212.405 198.114L207.592 211.737H217.217Z" fill="white"/>
<rect x="72.1143" y="37.125" width="97.9506" height="83.8272" fill="url(#paint0_linear)"/>
<rect x="207.561" y="158.451" width="97.9506" height="83.8272" transform="rotate(180 207.561 158.451)" fill="url(#paint1_linear)"/>
<path d="M160.201 94.8613L134.905 94.8613C134.905 94.8613 133.534 110.175 139.858 118.108C150.091 130.943 169.207 129.141 178.003 115.282C186.059 102.586 182.223 84.281 171.509 73.7311C156.309 58.7628 131.176 60.2892 119.133 77.8976C111.211 89.4793 115.734 113.065 113.181 130.872C110.675 148.35 92.3493 160.633 92.3493 160.633" stroke="white" stroke-width="5.65127"/>
<defs>
<linearGradient id="paint0_linear" x1="55.1002" y1="19.8637" x2="168.792" y2="129.428" gradientUnits="userSpaceOnUse">
<stop stop-color="#5F26CD"/>
<stop offset="0.472217" stop-color="#28266D" stop-opacity="0"/>
</linearGradient>
<linearGradient id="paint1_linear" x1="201.651" y1="147.341" x2="304.323" y2="250.605" gradientUnits="userSpaceOnUse">
<stop stop-color="#5E2AC3"/>
<stop offset="0.472217" stop-color="#28266D" stop-opacity="0"/>
</linearGradient>
</defs>
</svg>
