<?xml version="1.0" encoding="UTF-8" standalone="no"?>
<!DOCTYPE svg PUBLIC "-//W3C//DTD SVG 1.1//EN"
 "http://www.w3.org/Graphics/SVG/1.1/DTD/svg11.dtd">
<!-- Generated by graphviz version 2.38.0 (20140413.2041)
 -->
<!-- Title: pandora_monitoring Pages: 1 -->
<svg width="594pt" height="381pt"
 viewBox="0.00 0.00 594.00 381.00" xmlns="http://www.w3.org/2000/svg" xmlns:xlink="http://www.w3.org/1999/xlink">
<g id="graph0" class="graph" transform="scale(1 1) rotate(0) translate(4 377)">
<title>pandora_monitoring</title>
<polygon fill="white" stroke="none" points="-4,4 -4,-377 590,-377 590,4 -4,4"/>
<g id="clust1" class="cluster"><title>cluster_host_network</title>
<polygon fill="none" stroke="black" points="312,-8 312,-257 578,-257 578,-8 312,-8"/>
<text text-anchor="middle" x="445" y="-241.8" font-family="Times,serif" font-size="14.00">host network</text>
</g>
<g id="clust2" class="cluster"><title>cluster_docker_network</title>
<polygon fill="none" stroke="black" points="8,-95 8,-365 304,-365 304,-95 8,-95"/>
<text text-anchor="middle" x="156" y="-349.8" font-family="Times,serif" font-size="14.00">docker &#39;monitoring&#39; network</text>
</g>
<!-- nginx_grafana_proxy -->
<g id="node1" class="node"><title>nginx_grafana_proxy</title>
<polygon fill="none" stroke="black" points="570.163,-208 507.582,-226 382.418,-226 319.837,-208 382.418,-190 507.582,-190 570.163,-208"/>
<text text-anchor="middle" x="445" y="-204.3" font-family="Times,serif" font-size="14.00">nginx_grafana_proxy</text>
</g>
<!-- node_exporter -->
<g id="node2" class="node"><title>node_exporter</title>
<ellipse fill="none" stroke="black" cx="416" cy="-121" rx="77.9862" ry="18"/>
<text text-anchor="middle" x="416" y="-117.3" font-family="Times,serif" font-size="14.00">node_exporter</text>
</g>
<!-- nginx_grafana_proxy&#45;&gt;node_exporter -->
<!-- grafana -->
<g id="node4" class="node"><title>grafana</title>
<ellipse fill="none" stroke="black" cx="206" cy="-316" rx="46.2923" ry="18"/>
<text text-anchor="middle" x="206" y="-312.3" font-family="Times,serif" font-size="14.00">grafana</text>
</g>
<!-- nginx_grafana_proxy&#45;&gt;grafana -->
<g id="edge3" class="edge"><title>nginx_grafana_proxy&#45;&gt;grafana</title>
<path fill="none" stroke="black" d="M406.352,-226.141C361.836,-245.884 289.131,-278.13 244.625,-297.869"/>
<polygon fill="black" stroke="black" points="243.028,-294.749 235.306,-302.002 245.866,-301.147 243.028,-294.749"/>
<text text-anchor="middle" x="372" y="-268.8" font-family="Times,serif" font-size="14.00">localhost:3000</text>
</g>
<!-- nginx_stub_status -->
<g id="node3" class="node"><title>nginx_stub_status</title>
<ellipse fill="none" stroke="black" cx="416" cy="-34" rx="95.5831" ry="18"/>
<text text-anchor="middle" x="416" y="-30.3" font-family="Times,serif" font-size="14.00">nginx_stub_status</text>
</g>
<!-- node_exporter&#45;&gt;nginx_stub_status -->
<!-- prometheus -->
<g id="node5" class="node"><title>prometheus</title>
<ellipse fill="none" stroke="black" cx="204" cy="-208" rx="66.0889" ry="18"/>
<text text-anchor="middle" x="204" y="-204.3" font-family="Times,serif" font-size="14.00">prometheus</text>
</g>
<!-- grafana&#45;&gt;prometheus -->
<g id="edge5" class="edge"><title>grafana&#45;&gt;prometheus</title>
<path fill="none" stroke="black" d="M205.679,-297.969C205.366,-281.378 204.885,-255.883 204.518,-236.431"/>
<polygon fill="black" stroke="black" points="208.015,-236.273 204.327,-226.341 201.017,-236.405 208.015,-236.273"/>
</g>
<!-- loki -->
<g id="node8" class="node"><title>loki</title>
<ellipse fill="none" stroke="black" cx="92" cy="-208" rx="27.8951" ry="18"/>
<text text-anchor="middle" x="92" y="-204.3" font-family="Times,serif" font-size="14.00">loki</text>
</g>
<!-- grafana&#45;&gt;loki -->
<g id="edge4" class="edge"><title>grafana&#45;&gt;loki</title>
<path fill="none" stroke="black" d="M183.16,-300.215C167.127,-289.277 145.66,-273.476 129,-257 121.748,-249.828 114.683,-241.205 108.703,-233.258"/>
<polygon fill="black" stroke="black" points="111.402,-231.02 102.682,-225.001 105.746,-235.144 111.402,-231.02"/>
</g>
<!-- prometheus&#45;&gt;node_exporter -->
<g id="edge7" class="edge"><title>prometheus&#45;&gt;node_exporter</title>
<path fill="none" stroke="black" d="M247.569,-194.348C267.442,-188.204 291.14,-180.35 312,-172 333.897,-163.234 357.65,-151.956 376.921,-142.33"/>
<polygon fill="black" stroke="black" points="378.64,-145.383 385.993,-137.756 375.488,-139.133 378.64,-145.383"/>
</g>
<!-- cadvisor -->
<g id="node6" class="node"><title>cadvisor</title>
<ellipse fill="none" stroke="black" cx="66" cy="-121" rx="50.0912" ry="18"/>
<text text-anchor="middle" x="66" y="-117.3" font-family="Times,serif" font-size="14.00">cadvisor</text>
</g>
<!-- prometheus&#45;&gt;cadvisor -->
<g id="edge8" class="edge"><title>prometheus&#45;&gt;cadvisor</title>
<path fill="none" stroke="black" d="M178.367,-191.211C155.874,-177.357 123.043,-157.135 98.6708,-142.123"/>
<polygon fill="black" stroke="black" points="100.459,-139.114 90.1093,-136.85 96.7882,-145.074 100.459,-139.114"/>
</g>
<!-- nginx_exporter -->
<g id="node7" class="node"><title>nginx_exporter</title>
<ellipse fill="none" stroke="black" cx="215" cy="-121" rx="81.4863" ry="18"/>
<text text-anchor="middle" x="215" y="-117.3" font-family="Times,serif" font-size="14.00">nginx_exporter</text>
</g>
<!-- prometheus&#45;&gt;nginx_exporter -->
<g id="edge9" class="edge"><title>prometheus&#45;&gt;nginx_exporter</title>
<path fill="none" stroke="black" d="M178.156,-191.294C166.339,-181.988 156.301,-169.585 163,-157 165.653,-152.017 169.366,-147.616 173.6,-143.766"/>
<polygon fill="black" stroke="black" points="175.969,-146.356 181.669,-137.425 171.644,-140.852 175.969,-146.356"/>
<text text-anchor="middle" x="235.5" y="-160.8" font-family="Times,serif" font-size="14.00">host.docker.internal</text>
</g>
<!-- nginx_exporter&#45;&gt;nginx_stub_status -->
<g id="edge10" class="edge"><title>nginx_exporter&#45;&gt;nginx_stub_status</title>
<path fill="none" stroke="black" d="M228.283,-103.188C237.894,-92.1437 251.818,-78.2595 267,-70 286.042,-59.6404 308.079,-52.3292 329.268,-47.1754"/>
<polygon fill="black" stroke="black" points="330.291,-50.5317 339.256,-44.8856 328.727,-43.7087 330.291,-50.5317"/>
<text text-anchor="middle" x="339.5" y="-73.8" font-family="Times,serif" font-size="14.00">host.docker.internal</text>
</g>
<!-- promtail -->
<g id="node9" class="node"><title>promtail</title>
<ellipse fill="none" stroke="black" cx="92" cy="-316" rx="50.0912" ry="18"/>
<text text-anchor="middle" x="92" y="-312.3" font-family="Times,serif" font-size="14.00">promtail</text>
</g>
<!-- promtail&#45;&gt;loki -->
<g id="edge6" class="edge"><title>promtail&#45;&gt;loki</title>
<path fill="none" stroke="black" d="M92,-297.969C92,-281.378 92,-255.883 92,-236.431"/>
<polygon fill="black" stroke="black" points="95.5001,-236.341 92,-226.341 88.5001,-236.341 95.5001,-236.341"/>
</g>
</g>
</svg>
