<?xml version="1.0" encoding="UTF-8" standalone="no"?>
<!DOCTYPE svg PUBLIC "-//W3C//DTD SVG 1.1//EN"
 "http://www.w3.org/Graphics/SVG/1.1/DTD/svg11.dtd">
<!-- Generated by graphviz version 2.40.1 (0)
 -->
<!-- Title: pandora_monitoring Pages: 1 -->
<svg width="807pt" height="527pt"
 viewBox="0.00 0.00 807.00 527.00" xmlns="http://www.w3.org/2000/svg" xmlns:xlink="http://www.w3.org/1999/xlink">
<g id="graph0" class="graph" transform="scale(1 1) rotate(0) translate(4 523)">
<title>pandora_monitoring</title>
<polygon fill="#ffffff" stroke="transparent" points="-4,4 -4,-523 803,-523 803,4 -4,4"/>
<g id="clust1" class="cluster">
<title>cluster_host_network</title>
<polygon fill="none" stroke="#000000" points="525,-8 525,-403 791,-403 791,-8 525,-8"/>
<text text-anchor="middle" x="658" y="-387.8" font-family="Times,serif" font-size="14.00" fill="#000000">host network</text>
</g>
<g id="clust2" class="cluster">
<title>cluster_docker_network</title>
<polygon fill="none" stroke="#000000" points="8,-95 8,-511 517,-511 517,-95 8,-95"/>
<text text-anchor="middle" x="262.5" y="-495.8" font-family="Times,serif" font-size="14.00" fill="#000000">docker &#39;monitoring&#39; network</text>
</g>
<!-- nginx_grafana_proxy -->
<g id="node1" class="node">
<title>nginx_grafana_proxy</title>
<polygon fill="none" stroke="#000000" points="783.1635,-354 720.5817,-372 595.4183,-372 532.8365,-354 595.4183,-336 720.5817,-336 783.1635,-354"/>
<text text-anchor="middle" x="658" y="-350.3" font-family="Times,serif" font-size="14.00" fill="#000000">nginx_grafana_proxy</text>
</g>
<!-- node_exporter -->
<g id="node2" class="node">
<title>node_exporter</title>
<ellipse fill="none" stroke="#000000" cx="629" cy="-194" rx="77.9862" ry="18"/>
<text text-anchor="middle" x="629" y="-190.3" font-family="Times,serif" font-size="14.00" fill="#000000">node_exporter</text>
</g>
<!-- nginx_grafana_proxy&#45;&gt;node_exporter -->
<!-- grafana -->
<g id="node4" class="node">
<title>grafana</title>
<ellipse fill="none" stroke="#000000" cx="413" cy="-462" rx="46.2923" ry="18"/>
<text text-anchor="middle" x="413" y="-458.3" font-family="Times,serif" font-size="14.00" fill="#000000">grafana</text>
</g>
<!-- nginx_grafana_proxy&#45;&gt;grafana -->
<g id="edge3" class="edge">
<title>nginx_grafana_proxy&#45;&gt;grafana</title>
<path fill="none" stroke="#000000" d="M617.0335,-372.0587C571.509,-392.1267 498.4673,-424.3246 453.2387,-444.2621"/>
<polygon fill="#000000" stroke="#000000" points="451.768,-441.0854 444.0294,-448.3217 454.5916,-447.4907 451.768,-441.0854"/>
<text text-anchor="middle" x="582" y="-414.8" font-family="Times,serif" font-size="14.00" fill="#000000">localhost:3000</text>
</g>
<!-- nginx_stub_status -->
<g id="node3" class="node">
<title>nginx_stub_status</title>
<ellipse fill="none" stroke="#000000" cx="629" cy="-34" rx="95.5831" ry="18"/>
<text text-anchor="middle" x="629" y="-30.3" font-family="Times,serif" font-size="14.00" fill="#000000">nginx_stub_status</text>
</g>
<!-- node_exporter&#45;&gt;nginx_stub_status -->
<!-- prometheus -->
<g id="node5" class="node">
<title>prometheus</title>
<ellipse fill="none" stroke="#000000" cx="412" cy="-281" rx="66.0889" ry="18"/>
<text text-anchor="middle" x="412" y="-277.3" font-family="Times,serif" font-size="14.00" fill="#000000">prometheus</text>
</g>
<!-- grafana&#45;&gt;prometheus -->
<g id="edge5" class="edge">
<title>grafana&#45;&gt;prometheus</title>
<path fill="none" stroke="#000000" d="M412.9005,-443.9833C412.7265,-412.4877 412.3657,-347.1909 412.1575,-309.5061"/>
<polygon fill="#000000" stroke="#000000" points="415.6559,-309.1929 412.1006,-299.2125 408.656,-309.2317 415.6559,-309.1929"/>
</g>
<!-- loki -->
<g id="node8" class="node">
<title>loki</title>
<ellipse fill="none" stroke="#000000" cx="299" cy="-281" rx="27.8951" ry="18"/>
<text text-anchor="middle" x="299" y="-277.3" font-family="Times,serif" font-size="14.00" fill="#000000">loki</text>
</g>
<!-- grafana&#45;&gt;loki -->
<g id="edge4" class="edge">
<title>grafana&#45;&gt;loki</title>
<path fill="none" stroke="#000000" d="M401.8616,-444.3154C381.5636,-412.0878 338.4876,-343.6952 315.033,-306.4559"/>
<polygon fill="#000000" stroke="#000000" points="317.8095,-304.2967 309.5185,-297.7005 311.8864,-308.0273 317.8095,-304.2967"/>
</g>
<!-- prometheus&#45;&gt;node_exporter -->
<g id="edge7" class="edge">
<title>prometheus&#45;&gt;node_exporter</title>
<path fill="none" stroke="#000000" d="M434.7027,-264.0724C450.3938,-253.0495 472.1237,-239.0821 493,-230 513.9759,-220.8746 537.8065,-213.6078 559.5956,-208.0611"/>
<polygon fill="#000000" stroke="#000000" points="560.5739,-211.4248 569.4456,-205.6332 558.8985,-204.6282 560.5739,-211.4248"/>
<text text-anchor="middle" x="565.5" y="-233.8" font-family="Times,serif" font-size="14.00" fill="#000000">host.docker.internal</text>
</g>
<!-- cadvisor -->
<g id="node6" class="node">
<title>cadvisor</title>
<ellipse fill="none" stroke="#000000" cx="66" cy="-121" rx="50.0912" ry="18"/>
<text text-anchor="middle" x="66" y="-117.3" font-family="Times,serif" font-size="14.00" fill="#000000">cadvisor</text>
</g>
<!-- prometheus&#45;&gt;cadvisor -->
<g id="edge8" class="edge">
<title>prometheus&#45;&gt;cadvisor</title>
<path fill="none" stroke="#000000" d="M378.1941,-265.3672C314.044,-235.7024 174.9341,-171.3741 106.1574,-139.5699"/>
<polygon fill="#000000" stroke="#000000" points="107.4802,-136.3255 96.9346,-135.305 104.5421,-142.6791 107.4802,-136.3255"/>
</g>
<!-- nginx_exporter -->
<g id="node7" class="node">
<title>nginx_exporter</title>
<ellipse fill="none" stroke="#000000" cx="215" cy="-121" rx="81.4863" ry="18"/>
<text text-anchor="middle" x="215" y="-117.3" font-family="Times,serif" font-size="14.00" fill="#000000">nginx_exporter</text>
</g>
<!-- prometheus&#45;&gt;nginx_exporter -->
<g id="edge9" class="edge">
<title>prometheus&#45;&gt;nginx_exporter</title>
<path fill="none" stroke="#000000" d="M390.9175,-263.8772C355.6302,-235.2174 284.5325,-177.4731 244.3672,-144.8515"/>
<polygon fill="#000000" stroke="#000000" points="246.497,-142.0724 236.5281,-138.4847 242.0839,-147.506 246.497,-142.0724"/>
</g>
<!-- blackbox_exporter -->
<g id="node10" class="node">
<title>blackbox_exporter</title>
<ellipse fill="none" stroke="#000000" cx="412" cy="-121" rx="97.4827" ry="18"/>
<text text-anchor="middle" x="412" y="-117.3" font-family="Times,serif" font-size="14.00" fill="#000000">blackbox_exporter</text>
</g>
<!-- prometheus&#45;&gt;blackbox_exporter -->
<g id="edge10" class="edge">
<title>prometheus&#45;&gt;blackbox_exporter</title>
<path fill="none" stroke="#000000" d="M412,-262.957C412,-235.3487 412,-182.3746 412,-149.5255"/>
<polygon fill="#000000" stroke="#000000" points="415.5001,-149.2225 412,-139.2226 408.5001,-149.2226 415.5001,-149.2225"/>
</g>
<!-- nginx_exporter&#45;&gt;nginx_stub_status -->
<g id="edge11" class="edge">
<title>nginx_exporter&#45;&gt;nginx_stub_status</title>
<path fill="none" stroke="#000000" d="M262.9553,-106.4085C276.78,-102.4445 291.9299,-98.3312 306,-95 387.2121,-75.7723 481.045,-58.606 546.5766,-47.4207"/>
<polygon fill="#000000" stroke="#000000" points="547.1665,-50.8707 556.4394,-45.7459 545.9946,-43.9695 547.1665,-50.8707"/>
<text text-anchor="middle" x="493.5" y="-73.8" font-family="Times,serif" font-size="14.00" fill="#000000">host.docker.internal</text>
</g>
<!-- promtail -->
<g id="node9" class="node">
<title>promtail</title>
<ellipse fill="none" stroke="#000000" cx="299" cy="-462" rx="50.0912" ry="18"/>
<text text-anchor="middle" x="299" y="-458.3" font-family="Times,serif" font-size="14.00" fill="#000000">promtail</text>
</g>
<!-- promtail&#45;&gt;loki -->
<g id="edge6" class="edge">
<title>promtail&#45;&gt;loki</title>
<path fill="none" stroke="#000000" d="M299,-443.9833C299,-412.4877 299,-347.1909 299,-309.5061"/>
<polygon fill="#000000" stroke="#000000" points="302.5001,-309.2124 299,-299.2125 295.5001,-309.2125 302.5001,-309.2124"/>
</g>
</g>
</svg>
