<?xml version="1.0" encoding="UTF-8" standalone="no"?>
<!DOCTYPE svg PUBLIC "-//W3C//DTD SVG 1.1//EN"
 "http://www.w3.org/Graphics/SVG/1.1/DTD/svg11.dtd">
<!-- Generated by graphviz version 2.40.1 (0)
 -->
<!-- Title: pandora_monitoring Pages: 1 -->
<svg width="978pt" height="405pt"
 viewBox="0.00 0.00 978.00 405.00" xmlns="http://www.w3.org/2000/svg" xmlns:xlink="http://www.w3.org/1999/xlink">
<g id="graph0" class="graph" transform="scale(1 1) rotate(0) translate(4 401)">
<title>pandora_monitoring</title>
<polygon fill="#ffffff" stroke="transparent" points="-4,4 -4,-401 974,-401 974,4 -4,4"/>
<g id="clust1" class="cluster">
<title>cluster_host_network</title>
<polygon fill="none" stroke="#000000" points="312,-95 312,-170 962,-170 962,-95 312,-95"/>
<text text-anchor="middle" x="637" y="-154.8" font-family="Times,serif" font-size="14.00" fill="#000000">host network</text>
</g>
<g id="clust2" class="cluster">
<title>cluster_docker_network</title>
<polygon fill="none" stroke="#000000" points="8,-8 8,-389 304,-389 304,-8 8,-8"/>
<text text-anchor="middle" x="156" y="-373.8" font-family="Times,serif" font-size="14.00" fill="#000000">docker &#39;monitoring&#39; network</text>
</g>
<!-- nginx_grafana_proxy -->
<g id="node1" class="node">
<title>nginx_grafana_proxy</title>
<polygon fill="none" stroke="#000000" points="954.1635,-121 891.5817,-139 766.4183,-139 703.8365,-121 766.4183,-103 891.5817,-103 954.1635,-121"/>
<text text-anchor="middle" x="829" y="-117.3" font-family="Times,serif" font-size="14.00" fill="#000000">nginx_grafana_proxy</text>
</g>
<!-- grafana -->
<g id="node4" class="node">
<title>grafana</title>
<ellipse fill="none" stroke="#000000" cx="206" cy="-340" rx="46.2923" ry="18"/>
<text text-anchor="middle" x="206" y="-336.3" font-family="Times,serif" font-size="14.00" fill="#000000">grafana</text>
</g>
<!-- nginx_grafana_proxy&#45;&gt;grafana -->
<g id="edge1" class="edge">
<title>nginx_grafana_proxy&#45;&gt;grafana</title>
<path fill="none" stroke="#000000" d="M780.0615,-139.1083C754.7107,-148.4346 723.2307,-159.932 695,-170 531.5234,-228.3014 336.4365,-295.3758 250.4438,-324.8152"/>
<polygon fill="#000000" stroke="#000000" points="249.0793,-321.5828 240.7512,-328.1322 251.3458,-328.2057 249.0793,-321.5828"/>
<text text-anchor="middle" x="516" y="-254.8" font-family="Times,serif" font-size="14.00" fill="#000000">localhost:3000</text>
</g>
<!-- nginx_stub_status -->
<g id="node2" class="node">
<title>nginx_stub_status</title>
<ellipse fill="none" stroke="#000000" cx="590" cy="-121" rx="95.5831" ry="18"/>
<text text-anchor="middle" x="590" y="-117.3" font-family="Times,serif" font-size="14.00" fill="#000000">nginx_stub_status</text>
</g>
<!-- node_exporter -->
<g id="node3" class="node">
<title>node_exporter</title>
<ellipse fill="none" stroke="#000000" cx="398" cy="-121" rx="77.9862" ry="18"/>
<text text-anchor="middle" x="398" y="-117.3" font-family="Times,serif" font-size="14.00" fill="#000000">node_exporter</text>
</g>
<!-- prometheus -->
<g id="node5" class="node">
<title>prometheus</title>
<ellipse fill="none" stroke="#000000" cx="205" cy="-215" rx="66.0889" ry="18"/>
<text text-anchor="middle" x="205" y="-211.3" font-family="Times,serif" font-size="14.00" fill="#000000">prometheus</text>
</g>
<!-- grafana&#45;&gt;prometheus -->
<g id="edge3" class="edge">
<title>grafana&#45;&gt;prometheus</title>
<path fill="none" stroke="#000000" d="M205.8546,-321.8239C205.6902,-301.2723 205.4204,-267.5472 205.2279,-243.4893"/>
<polygon fill="#000000" stroke="#000000" points="208.7256,-243.1697 205.1456,-233.198 201.7258,-243.2257 208.7256,-243.1697"/>
</g>
<!-- loki -->
<g id="node8" class="node">
<title>loki</title>
<ellipse fill="none" stroke="#000000" cx="92" cy="-215" rx="27.8951" ry="18"/>
<text text-anchor="middle" x="92" y="-211.3" font-family="Times,serif" font-size="14.00" fill="#000000">loki</text>
</g>
<!-- grafana&#45;&gt;loki -->
<g id="edge2" class="edge">
<title>grafana&#45;&gt;loki</title>
<path fill="none" stroke="#000000" d="M190.3878,-322.8814C170.3588,-300.9197 135.5373,-262.7383 113.1451,-238.1854"/>
<polygon fill="#000000" stroke="#000000" points="115.6707,-235.7607 106.3462,-230.7304 110.4986,-240.4776 115.6707,-235.7607"/>
</g>
<!-- prometheus&#45;&gt;node_exporter -->
<g id="edge5" class="edge">
<title>prometheus&#45;&gt;node_exporter</title>
<path fill="none" stroke="#000000" d="M241.5788,-199.9314C261.4219,-191.5293 286.2669,-180.639 308,-170 325.2309,-161.565 343.9148,-151.5417 359.7701,-142.765"/>
<polygon fill="#000000" stroke="#000000" points="361.7148,-145.6881 368.7463,-137.7628 358.3073,-139.5734 361.7148,-145.6881"/>
</g>
<!-- cadvisor -->
<g id="node6" class="node">
<title>cadvisor</title>
<ellipse fill="none" stroke="#000000" cx="66" cy="-34" rx="50.0912" ry="18"/>
<text text-anchor="middle" x="66" y="-30.3" font-family="Times,serif" font-size="14.00" fill="#000000">cadvisor</text>
</g>
<!-- prometheus&#45;&gt;cadvisor -->
<g id="edge6" class="edge">
<title>prometheus&#45;&gt;cadvisor</title>
<path fill="none" stroke="#000000" d="M181.0111,-198.1711C170.768,-190.3086 159.1028,-180.3958 150,-170 120.1061,-135.8597 94.1304,-89.8473 79.2635,-61.0574"/>
<polygon fill="#000000" stroke="#000000" points="82.3092,-59.325 74.658,-51.9962 76.069,-62.4967 82.3092,-59.325"/>
</g>
<!-- nginx_exporter -->
<g id="node7" class="node">
<title>nginx_exporter</title>
<ellipse fill="none" stroke="#000000" cx="215" cy="-34" rx="81.4863" ry="18"/>
<text text-anchor="middle" x="215" y="-30.3" font-family="Times,serif" font-size="14.00" fill="#000000">nginx_exporter</text>
</g>
<!-- prometheus&#45;&gt;nginx_exporter -->
<g id="edge7" class="edge">
<title>prometheus&#45;&gt;nginx_exporter</title>
<path fill="none" stroke="#000000" d="M182.9177,-197.6108C175.0687,-190.0652 167.154,-180.5387 163,-170 150.7765,-138.9888 151.4774,-126.2785 163,-95 167.9833,-81.4726 177.4486,-68.9044 186.9525,-58.7342"/>
<polygon fill="#000000" stroke="#000000" points="189.6135,-61.0209 194.1541,-51.4483 184.635,-56.1 189.6135,-61.0209"/>
<text text-anchor="middle" x="235.5" y="-117.3" font-family="Times,serif" font-size="14.00" fill="#000000">host.docker.internal</text>
</g>
<!-- nginx_exporter&#45;&gt;nginx_stub_status -->
<g id="edge8" class="edge">
<title>nginx_exporter&#45;&gt;nginx_stub_status</title>
<path fill="none" stroke="#000000" d="M272.7523,-46.6876C327.4752,-58.7949 411.9316,-77.7013 485,-95 497.1847,-97.8847 510.1451,-101.0304 522.6505,-104.1056"/>
<polygon fill="#000000" stroke="#000000" points="522.0112,-107.5528 532.5585,-106.5503 523.6882,-100.7566 522.0112,-107.5528"/>
<text text-anchor="middle" x="512.5" y="-73.8" font-family="Times,serif" font-size="14.00" fill="#000000">host.docker.internal</text>
</g>
<!-- promtail -->
<g id="node9" class="node">
<title>promtail</title>
<ellipse fill="none" stroke="#000000" cx="92" cy="-340" rx="50.0912" ry="18"/>
<text text-anchor="middle" x="92" y="-336.3" font-family="Times,serif" font-size="14.00" fill="#000000">promtail</text>
</g>
<!-- promtail&#45;&gt;loki -->
<g id="edge4" class="edge">
<title>promtail&#45;&gt;loki</title>
<path fill="none" stroke="#000000" d="M92,-321.8239C92,-301.2723 92,-267.5472 92,-243.4893"/>
<polygon fill="#000000" stroke="#000000" points="95.5001,-243.198 92,-233.198 88.5001,-243.198 95.5001,-243.198"/>
</g>
</g>
</svg>
