<?xml version="1.0" encoding="UTF-8" standalone="no"?>
<!DOCTYPE svg PUBLIC "-//W3C//DTD SVG 1.1//EN"
 "http://www.w3.org/Graphics/SVG/1.1/DTD/svg11.dtd">
<!-- Generated by graphviz version 2.38.0 (20140413.2041)
 -->
<!-- Title: pandora_monitoring Pages: 1 -->
<svg width="978pt" height="326pt"
 viewBox="0.00 0.00 978.00 326.00" xmlns="http://www.w3.org/2000/svg" xmlns:xlink="http://www.w3.org/1999/xlink">
<g id="graph0" class="graph" transform="scale(1 1) rotate(0) translate(4 322)">
<title>pandora_monitoring</title>
<polygon fill="white" stroke="none" points="-4,4 -4,-322 974,-322 974,4 -4,4"/>
<g id="clust1" class="cluster"><title>cluster_host_network</title>
<polygon fill="none" stroke="black" points="312,-8 312,-106 962,-106 962,-8 312,-8"/>
<text text-anchor="middle" x="637" y="-90.8" font-family="Times,serif" font-size="14.00">host network</text>
</g>
<g id="clust2" class="cluster"><title>cluster_docker_network</title>
<polygon fill="none" stroke="black" points="8,-8 8,-310 304,-310 304,-8 8,-8"/>
<text text-anchor="middle" x="156" y="-294.8" font-family="Times,serif" font-size="14.00">docker &#39;monitoring&#39; network</text>
</g>
<!-- nginx_grafana_proxy -->
<g id="node1" class="node"><title>nginx_grafana_proxy</title>
<polygon fill="none" stroke="black" points="954.163,-34 891.582,-52 766.418,-52 703.837,-34 766.418,-16 891.582,-16 954.163,-34"/>
<text text-anchor="middle" x="829" y="-30.3" font-family="Times,serif" font-size="14.00">nginx_grafana_proxy</text>
</g>
<!-- grafana -->
<g id="node4" class="node"><title>grafana</title>
<ellipse fill="none" stroke="black" cx="206" cy="-238" rx="46.2923" ry="18"/>
<text text-anchor="middle" x="206" y="-234.3" font-family="Times,serif" font-size="14.00">grafana</text>
</g>
<!-- nginx_grafana_proxy&#45;&gt;grafana -->
<g id="edge1" class="edge"><title>nginx_grafana_proxy&#45;&gt;grafana</title>
<path fill="none" stroke="black" d="M801.386,-52.0088C774.888,-67.7495 733.347,-90.9279 695,-106 540.035,-166.908 346.628,-209.41 256.542,-227.392"/>
<polygon fill="black" stroke="black" points="255.725,-223.986 246.595,-229.362 257.084,-230.853 255.725,-223.986"/>
<text text-anchor="middle" x="627" y="-161.3" font-family="Times,serif" font-size="14.00">localhost:3000</text>
</g>
<!-- nginx_stub_status -->
<g id="node2" class="node"><title>nginx_stub_status</title>
<ellipse fill="none" stroke="black" cx="590" cy="-34" rx="95.5831" ry="18"/>
<text text-anchor="middle" x="590" y="-30.3" font-family="Times,serif" font-size="14.00">nginx_stub_status</text>
</g>
<!-- node_exporter -->
<g id="node3" class="node"><title>node_exporter</title>
<ellipse fill="none" stroke="black" cx="398" cy="-34" rx="77.9862" ry="18"/>
<text text-anchor="middle" x="398" y="-30.3" font-family="Times,serif" font-size="14.00">node_exporter</text>
</g>
<!-- prometheus -->
<g id="node5" class="node"><title>prometheus</title>
<ellipse fill="none" stroke="black" cx="204" cy="-165" rx="66.0889" ry="18"/>
<text text-anchor="middle" x="204" y="-161.3" font-family="Times,serif" font-size="14.00">prometheus</text>
</g>
<!-- grafana&#45;&gt;prometheus -->
<g id="edge3" class="edge"><title>grafana&#45;&gt;prometheus</title>
<path fill="none" stroke="black" d="M205.516,-219.813C205.29,-211.789 205.015,-202.047 204.763,-193.069"/>
<polygon fill="black" stroke="black" points="208.26,-192.926 204.48,-183.029 201.263,-193.123 208.26,-192.926"/>
</g>
<!-- loki -->
<g id="node8" class="node"><title>loki</title>
<ellipse fill="none" stroke="black" cx="92" cy="-165" rx="27.8951" ry="18"/>
<text text-anchor="middle" x="92" y="-161.3" font-family="Times,serif" font-size="14.00">loki</text>
</g>
<!-- grafana&#45;&gt;loki -->
<g id="edge2" class="edge"><title>grafana&#45;&gt;loki</title>
<path fill="none" stroke="black" d="M182.655,-222.461C164.548,-211.183 139.38,-195.509 120.156,-183.536"/>
<polygon fill="black" stroke="black" points="121.86,-180.474 111.521,-178.158 118.159,-186.416 121.86,-180.474"/>
</g>
<!-- prometheus&#45;&gt;node_exporter -->
<g id="edge5" class="edge"><title>prometheus&#45;&gt;node_exporter</title>
<path fill="none" stroke="black" d="M270.363,-164.421C337.855,-163.264 435.853,-156.673 460,-129 479.631,-106.502 453.769,-77.3898 429.709,-57.5639"/>
<polygon fill="black" stroke="black" points="431.702,-54.6776 421.688,-51.2194 427.36,-60.168 431.702,-54.6776"/>
</g>
<!-- cadvisor -->
<g id="node6" class="node"><title>cadvisor</title>
<ellipse fill="none" stroke="black" cx="66" cy="-34" rx="50.0912" ry="18"/>
<text text-anchor="middle" x="66" y="-30.3" font-family="Times,serif" font-size="14.00">cadvisor</text>
</g>
<!-- prometheus&#45;&gt;cadvisor -->
<g id="edge6" class="edge"><title>prometheus&#45;&gt;cadvisor</title>
<path fill="none" stroke="black" d="M179.303,-148.172C163.089,-137.242 141.846,-121.864 125,-106 110.12,-91.9877 95.4232,-74.3161 84.4201,-60.1087"/>
<polygon fill="black" stroke="black" points="86.9187,-57.6124 78.0777,-51.7738 81.3481,-61.8513 86.9187,-57.6124"/>
</g>
<!-- nginx_exporter -->
<g id="node7" class="node"><title>nginx_exporter</title>
<ellipse fill="none" stroke="black" cx="215" cy="-34" rx="81.4863" ry="18"/>
<text text-anchor="middle" x="215" y="-30.3" font-family="Times,serif" font-size="14.00">nginx_exporter</text>
</g>
<!-- prometheus&#45;&gt;nginx_exporter -->
<g id="edge7" class="edge"><title>prometheus&#45;&gt;nginx_exporter</title>
<path fill="none" stroke="black" d="M179.265,-148.118C173.131,-142.841 167.355,-136.395 164,-129 161.245,-122.929 162.115,-120.395 164,-114 169.864,-94.1033 182.471,-74.4958 193.683,-59.792"/>
<polygon fill="black" stroke="black" points="196.598,-61.7489 200.061,-51.7362 191.11,-57.4036 196.598,-61.7489"/>
<text text-anchor="middle" x="236.5" y="-117.8" font-family="Times,serif" font-size="14.00">host.docker.internal</text>
</g>
<!-- nginx_exporter&#45;&gt;nginx_stub_status -->
<g id="edge8" class="edge"><title>nginx_exporter&#45;&gt;nginx_stub_status</title>
<path fill="none" stroke="black" d="M228.678,-52.0797C245.85,-72.6252 277.462,-103.75 313.5,-107 389.416,-113.845 412.631,-129.934 485,-106 514.695,-96.1793 543.643,-75.217 563.597,-58.4308"/>
<polygon fill="black" stroke="black" points="566.03,-60.9548 571.311,-51.7703 561.455,-55.6565 566.03,-60.9548"/>
<text text-anchor="middle" x="386" y="-117.8" font-family="Times,serif" font-size="14.00">host.docker.internal</text>
</g>
<!-- promtail -->
<g id="node9" class="node"><title>promtail</title>
<ellipse fill="none" stroke="black" cx="92" cy="-238" rx="50.0912" ry="18"/>
<text text-anchor="middle" x="92" y="-234.3" font-family="Times,serif" font-size="14.00">promtail</text>
</g>
<!-- promtail&#45;&gt;loki -->
<g id="edge4" class="edge"><title>promtail&#45;&gt;loki</title>
<path fill="none" stroke="black" d="M92,-219.813C92,-211.789 92,-202.047 92,-193.069"/>
<polygon fill="black" stroke="black" points="95.5001,-193.029 92,-183.029 88.5001,-193.029 95.5001,-193.029"/>
</g>
</g>
</svg>
